<mxfile host="Electron" agent="Mozilla/5.0 (Macintosh; Intel Mac OS X 10_15_7) AppleWebKit/537.36 (KHTML, like Gecko) draw.io/24.7.17 Chrome/128.0.6613.36 Electron/32.0.1 Safari/537.36" version="24.7.17">
  <diagram name="페이지-1" id="OwQ4uWkILFtKZfJUjsBN">
    <mxGraphModel dx="922" dy="540" grid="1" gridSize="10" guides="1" tooltips="1" connect="1" arrows="1" fold="1" page="1" pageScale="1" pageWidth="827" pageHeight="1169" math="0" shadow="0">
      <root>
        <mxCell id="0" />
        <mxCell id="1" parent="0" />
        <mxCell id="nRilxqQP9LvpIdj3FOjO-86" value="" style="rounded=0;whiteSpace=wrap;html=1;" vertex="1" parent="1">
          <mxGeometry x="700" y="450" width="640" height="510" as="geometry" />
        </mxCell>
        <mxCell id="nRilxqQP9LvpIdj3FOjO-42" value="" style="rounded=0;whiteSpace=wrap;html=1;" vertex="1" parent="1">
          <mxGeometry x="60" y="450" width="640" height="400" as="geometry" />
        </mxCell>
        <mxCell id="nRilxqQP9LvpIdj3FOjO-41" value="" style="rounded=0;whiteSpace=wrap;html=1;" vertex="1" parent="1">
          <mxGeometry x="90" y="480" width="580" height="340" as="geometry" />
        </mxCell>
        <mxCell id="nRilxqQP9LvpIdj3FOjO-1" value="" style="shape=table;startSize=0;container=1;collapsible=0;childLayout=tableLayout;fontSize=16;" vertex="1" parent="1">
          <mxGeometry x="200" y="520" width="240" height="60" as="geometry" />
        </mxCell>
        <mxCell id="nRilxqQP9LvpIdj3FOjO-2" value="" style="shape=tableRow;horizontal=0;startSize=0;swimlaneHead=0;swimlaneBody=0;strokeColor=inherit;top=0;left=0;bottom=0;right=0;collapsible=0;dropTarget=0;fillColor=none;points=[[0,0.5],[1,0.5]];portConstraint=eastwest;fontSize=16;" vertex="1" parent="nRilxqQP9LvpIdj3FOjO-1">
          <mxGeometry width="240" height="60" as="geometry" />
        </mxCell>
        <mxCell id="nRilxqQP9LvpIdj3FOjO-3" value="100" style="shape=partialRectangle;html=1;whiteSpace=wrap;connectable=0;strokeColor=inherit;overflow=hidden;fillColor=none;top=0;left=0;bottom=0;right=0;pointerEvents=1;fontSize=16;" vertex="1" parent="nRilxqQP9LvpIdj3FOjO-2">
          <mxGeometry width="60" height="60" as="geometry">
            <mxRectangle width="60" height="60" as="alternateBounds" />
          </mxGeometry>
        </mxCell>
        <mxCell id="nRilxqQP9LvpIdj3FOjO-4" value="300" style="shape=partialRectangle;html=1;whiteSpace=wrap;connectable=0;strokeColor=inherit;overflow=hidden;fillColor=none;top=0;left=0;bottom=0;right=0;pointerEvents=1;fontSize=16;" vertex="1" parent="nRilxqQP9LvpIdj3FOjO-2">
          <mxGeometry x="60" width="60" height="60" as="geometry">
            <mxRectangle width="60" height="60" as="alternateBounds" />
          </mxGeometry>
        </mxCell>
        <mxCell id="nRilxqQP9LvpIdj3FOjO-5" value="400" style="shape=partialRectangle;html=1;whiteSpace=wrap;connectable=0;strokeColor=inherit;overflow=hidden;fillColor=none;top=0;left=0;bottom=0;right=0;pointerEvents=1;fontSize=16;" vertex="1" parent="nRilxqQP9LvpIdj3FOjO-2">
          <mxGeometry x="120" width="60" height="60" as="geometry">
            <mxRectangle width="60" height="60" as="alternateBounds" />
          </mxGeometry>
        </mxCell>
        <mxCell id="nRilxqQP9LvpIdj3FOjO-14" value="500" style="shape=partialRectangle;html=1;whiteSpace=wrap;connectable=0;strokeColor=inherit;overflow=hidden;fillColor=none;top=0;left=0;bottom=0;right=0;pointerEvents=1;fontSize=16;" vertex="1" parent="nRilxqQP9LvpIdj3FOjO-2">
          <mxGeometry x="180" width="60" height="60" as="geometry">
            <mxRectangle width="60" height="60" as="alternateBounds" />
          </mxGeometry>
        </mxCell>
        <mxCell id="nRilxqQP9LvpIdj3FOjO-15" value="" style="shape=table;startSize=0;container=1;collapsible=0;childLayout=tableLayout;fontSize=16;" vertex="1" parent="1">
          <mxGeometry x="480" y="520" width="120" height="60" as="geometry" />
        </mxCell>
        <mxCell id="nRilxqQP9LvpIdj3FOjO-16" value="" style="shape=tableRow;horizontal=0;startSize=0;swimlaneHead=0;swimlaneBody=0;strokeColor=inherit;top=0;left=0;bottom=0;right=0;collapsible=0;dropTarget=0;fillColor=none;points=[[0,0.5],[1,0.5]];portConstraint=eastwest;fontSize=16;" vertex="1" parent="nRilxqQP9LvpIdj3FOjO-15">
          <mxGeometry width="120" height="60" as="geometry" />
        </mxCell>
        <mxCell id="nRilxqQP9LvpIdj3FOjO-17" value="(n-1)&lt;div&gt;*100&lt;/div&gt;" style="shape=partialRectangle;html=1;whiteSpace=wrap;connectable=0;strokeColor=inherit;overflow=hidden;fillColor=none;top=0;left=0;bottom=0;right=0;pointerEvents=1;fontSize=16;" vertex="1" parent="nRilxqQP9LvpIdj3FOjO-16">
          <mxGeometry width="60" height="60" as="geometry">
            <mxRectangle width="60" height="60" as="alternateBounds" />
          </mxGeometry>
        </mxCell>
        <mxCell id="nRilxqQP9LvpIdj3FOjO-18" value="n*100" style="shape=partialRectangle;html=1;whiteSpace=wrap;connectable=0;strokeColor=inherit;overflow=hidden;fillColor=none;top=0;left=0;bottom=0;right=0;pointerEvents=1;fontSize=16;" vertex="1" parent="nRilxqQP9LvpIdj3FOjO-16">
          <mxGeometry x="60" width="60" height="60" as="geometry">
            <mxRectangle width="60" height="60" as="alternateBounds" />
          </mxGeometry>
        </mxCell>
        <mxCell id="nRilxqQP9LvpIdj3FOjO-21" value="" style="shape=table;startSize=0;container=1;collapsible=0;childLayout=tableLayout;fontSize=16;" vertex="1" parent="1">
          <mxGeometry x="200" y="640" width="240" height="60" as="geometry" />
        </mxCell>
        <mxCell id="nRilxqQP9LvpIdj3FOjO-22" value="" style="shape=tableRow;horizontal=0;startSize=0;swimlaneHead=0;swimlaneBody=0;strokeColor=inherit;top=0;left=0;bottom=0;right=0;collapsible=0;dropTarget=0;fillColor=none;points=[[0,0.5],[1,0.5]];portConstraint=eastwest;fontSize=16;" vertex="1" parent="nRilxqQP9LvpIdj3FOjO-21">
          <mxGeometry width="240" height="60" as="geometry" />
        </mxCell>
        <mxCell id="nRilxqQP9LvpIdj3FOjO-23" value="100" style="shape=partialRectangle;html=1;whiteSpace=wrap;connectable=0;strokeColor=inherit;overflow=hidden;fillColor=none;top=0;left=0;bottom=0;right=0;pointerEvents=1;fontSize=16;" vertex="1" parent="nRilxqQP9LvpIdj3FOjO-22">
          <mxGeometry width="60" height="60" as="geometry">
            <mxRectangle width="60" height="60" as="alternateBounds" />
          </mxGeometry>
        </mxCell>
        <mxCell id="nRilxqQP9LvpIdj3FOjO-24" value="200" style="shape=partialRectangle;html=1;whiteSpace=wrap;connectable=0;strokeColor=inherit;overflow=hidden;fillColor=none;top=0;left=0;bottom=0;right=0;pointerEvents=1;fontSize=16;" vertex="1" parent="nRilxqQP9LvpIdj3FOjO-22">
          <mxGeometry x="60" width="60" height="60" as="geometry">
            <mxRectangle width="60" height="60" as="alternateBounds" />
          </mxGeometry>
        </mxCell>
        <mxCell id="nRilxqQP9LvpIdj3FOjO-25" value="300" style="shape=partialRectangle;html=1;whiteSpace=wrap;connectable=0;strokeColor=inherit;overflow=hidden;fillColor=none;top=0;left=0;bottom=0;right=0;pointerEvents=1;fontSize=16;" vertex="1" parent="nRilxqQP9LvpIdj3FOjO-22">
          <mxGeometry x="120" width="60" height="60" as="geometry">
            <mxRectangle width="60" height="60" as="alternateBounds" />
          </mxGeometry>
        </mxCell>
        <mxCell id="nRilxqQP9LvpIdj3FOjO-26" value="400" style="shape=partialRectangle;html=1;whiteSpace=wrap;connectable=0;strokeColor=inherit;overflow=hidden;fillColor=none;top=0;left=0;bottom=0;right=0;pointerEvents=1;fontSize=16;" vertex="1" parent="nRilxqQP9LvpIdj3FOjO-22">
          <mxGeometry x="180" width="60" height="60" as="geometry">
            <mxRectangle width="60" height="60" as="alternateBounds" />
          </mxGeometry>
        </mxCell>
        <mxCell id="nRilxqQP9LvpIdj3FOjO-34" style="edgeStyle=orthogonalEdgeStyle;rounded=0;orthogonalLoop=1;jettySize=auto;html=1;exitX=0.365;exitY=0.986;exitDx=0;exitDy=0;entryX=0.596;entryY=1.005;entryDx=0;entryDy=0;entryPerimeter=0;curved=1;exitPerimeter=0;" edge="1" parent="nRilxqQP9LvpIdj3FOjO-21" source="nRilxqQP9LvpIdj3FOjO-22" target="nRilxqQP9LvpIdj3FOjO-22">
          <mxGeometry relative="1" as="geometry">
            <mxPoint x="90" y="140" as="sourcePoint" />
            <mxPoint x="168" y="80" as="targetPoint" />
            <Array as="points">
              <mxPoint x="88" y="80" />
              <mxPoint x="143" y="80" />
            </Array>
          </mxGeometry>
        </mxCell>
        <mxCell id="nRilxqQP9LvpIdj3FOjO-27" value="" style="shape=table;startSize=0;container=1;collapsible=0;childLayout=tableLayout;fontSize=16;" vertex="1" parent="1">
          <mxGeometry x="480" y="640" width="120" height="60" as="geometry" />
        </mxCell>
        <mxCell id="nRilxqQP9LvpIdj3FOjO-28" value="" style="shape=tableRow;horizontal=0;startSize=0;swimlaneHead=0;swimlaneBody=0;strokeColor=inherit;top=0;left=0;bottom=0;right=0;collapsible=0;dropTarget=0;fillColor=none;points=[[0,0.5],[1,0.5]];portConstraint=eastwest;fontSize=16;" vertex="1" parent="nRilxqQP9LvpIdj3FOjO-27">
          <mxGeometry width="120" height="60" as="geometry" />
        </mxCell>
        <mxCell id="nRilxqQP9LvpIdj3FOjO-29" value="(n-2)&lt;div&gt;*100&lt;/div&gt;" style="shape=partialRectangle;html=1;whiteSpace=wrap;connectable=0;strokeColor=inherit;overflow=hidden;fillColor=none;top=0;left=0;bottom=0;right=0;pointerEvents=1;fontSize=16;" vertex="1" parent="nRilxqQP9LvpIdj3FOjO-28">
          <mxGeometry width="60" height="60" as="geometry">
            <mxRectangle width="60" height="60" as="alternateBounds" />
          </mxGeometry>
        </mxCell>
        <mxCell id="nRilxqQP9LvpIdj3FOjO-30" value="(n-1)&lt;div&gt;*100&lt;/div&gt;" style="shape=partialRectangle;html=1;whiteSpace=wrap;connectable=0;strokeColor=inherit;overflow=hidden;fillColor=none;top=0;left=0;bottom=0;right=0;pointerEvents=1;fontSize=16;" vertex="1" parent="nRilxqQP9LvpIdj3FOjO-28">
          <mxGeometry x="60" width="60" height="60" as="geometry">
            <mxRectangle width="60" height="60" as="alternateBounds" />
          </mxGeometry>
        </mxCell>
        <mxCell id="nRilxqQP9LvpIdj3FOjO-32" value="&lt;font style=&quot;font-size: 18px;&quot;&gt;200&lt;/font&gt;" style="whiteSpace=wrap;html=1;aspect=fixed;fillColor=#dae8fc;strokeColor=#6c8ebf;dashed=1;" vertex="1" parent="1">
          <mxGeometry x="150" y="730" width="60" height="60" as="geometry" />
        </mxCell>
        <mxCell id="nRilxqQP9LvpIdj3FOjO-33" style="edgeStyle=orthogonalEdgeStyle;rounded=0;orthogonalLoop=1;jettySize=auto;html=1;exitX=1;exitY=0.5;exitDx=0;exitDy=0;entryX=0.367;entryY=0.995;entryDx=0;entryDy=0;entryPerimeter=0;curved=1;fillColor=#dae8fc;strokeColor=#6c8ebf;dashed=1;strokeWidth=1;" edge="1" parent="1" source="nRilxqQP9LvpIdj3FOjO-32" target="nRilxqQP9LvpIdj3FOjO-22">
          <mxGeometry relative="1" as="geometry" />
        </mxCell>
        <mxCell id="nRilxqQP9LvpIdj3FOjO-36" style="edgeStyle=orthogonalEdgeStyle;rounded=0;orthogonalLoop=1;jettySize=auto;html=1;exitX=0.365;exitY=0.986;exitDx=0;exitDy=0;entryX=0.596;entryY=1.005;entryDx=0;entryDy=0;entryPerimeter=0;curved=1;exitPerimeter=0;" edge="1" parent="1">
          <mxGeometry relative="1" as="geometry">
            <mxPoint x="360" y="700" as="sourcePoint" />
            <mxPoint x="415" y="701" as="targetPoint" />
            <Array as="points">
              <mxPoint x="360" y="721" />
              <mxPoint x="415" y="721" />
            </Array>
          </mxGeometry>
        </mxCell>
        <mxCell id="nRilxqQP9LvpIdj3FOjO-37" style="edgeStyle=orthogonalEdgeStyle;rounded=0;orthogonalLoop=1;jettySize=auto;html=1;exitX=0.365;exitY=0.986;exitDx=0;exitDy=0;entryX=0.596;entryY=1.005;entryDx=0;entryDy=0;entryPerimeter=0;curved=1;exitPerimeter=0;" edge="1" parent="1">
          <mxGeometry relative="1" as="geometry">
            <mxPoint x="460" y="700" as="sourcePoint" />
            <mxPoint x="515" y="701" as="targetPoint" />
            <Array as="points">
              <mxPoint x="460" y="721" />
              <mxPoint x="515" y="721" />
            </Array>
          </mxGeometry>
        </mxCell>
        <mxCell id="nRilxqQP9LvpIdj3FOjO-38" style="edgeStyle=orthogonalEdgeStyle;rounded=0;orthogonalLoop=1;jettySize=auto;html=1;exitX=0.365;exitY=0.986;exitDx=0;exitDy=0;entryX=0.596;entryY=1.005;entryDx=0;entryDy=0;entryPerimeter=0;curved=1;exitPerimeter=0;" edge="1" parent="1">
          <mxGeometry relative="1" as="geometry">
            <mxPoint x="520" y="700" as="sourcePoint" />
            <mxPoint x="575" y="701" as="targetPoint" />
            <Array as="points">
              <mxPoint x="520" y="721" />
              <mxPoint x="575" y="721" />
            </Array>
          </mxGeometry>
        </mxCell>
        <mxCell id="nRilxqQP9LvpIdj3FOjO-39" value="&lt;font style=&quot;font-size: 18px;&quot;&gt;...&lt;/font&gt;" style="whiteSpace=wrap;html=1;aspect=fixed;dashed=1;strokeColor=none;" vertex="1" parent="1">
          <mxGeometry x="445" y="535" width="30" height="30" as="geometry" />
        </mxCell>
        <mxCell id="nRilxqQP9LvpIdj3FOjO-40" value="&lt;font style=&quot;font-size: 18px;&quot;&gt;...&lt;/font&gt;" style="whiteSpace=wrap;html=1;aspect=fixed;dashed=1;strokeColor=none;" vertex="1" parent="1">
          <mxGeometry x="445" y="655" width="30" height="30" as="geometry" />
        </mxCell>
        <mxCell id="nRilxqQP9LvpIdj3FOjO-43" value="" style="rounded=0;whiteSpace=wrap;html=1;" vertex="1" parent="1">
          <mxGeometry x="60" y="850" width="640" height="400" as="geometry" />
        </mxCell>
        <mxCell id="nRilxqQP9LvpIdj3FOjO-44" value="" style="rounded=0;whiteSpace=wrap;html=1;" vertex="1" parent="1">
          <mxGeometry x="90" y="880" width="580" height="340" as="geometry" />
        </mxCell>
        <mxCell id="nRilxqQP9LvpIdj3FOjO-45" value="" style="shape=table;startSize=0;container=1;collapsible=0;childLayout=tableLayout;fontSize=16;" vertex="1" parent="1">
          <mxGeometry x="200" y="920" width="240" height="60" as="geometry" />
        </mxCell>
        <mxCell id="nRilxqQP9LvpIdj3FOjO-46" value="" style="shape=tableRow;horizontal=0;startSize=0;swimlaneHead=0;swimlaneBody=0;strokeColor=inherit;top=0;left=0;bottom=0;right=0;collapsible=0;dropTarget=0;fillColor=none;points=[[0,0.5],[1,0.5]];portConstraint=eastwest;fontSize=16;" vertex="1" parent="nRilxqQP9LvpIdj3FOjO-45">
          <mxGeometry width="240" height="60" as="geometry" />
        </mxCell>
        <mxCell id="nRilxqQP9LvpIdj3FOjO-47" value="100" style="shape=partialRectangle;html=1;whiteSpace=wrap;connectable=0;strokeColor=inherit;overflow=hidden;fillColor=none;top=0;left=0;bottom=0;right=0;pointerEvents=1;fontSize=16;" vertex="1" parent="nRilxqQP9LvpIdj3FOjO-46">
          <mxGeometry width="60" height="60" as="geometry">
            <mxRectangle width="60" height="60" as="alternateBounds" />
          </mxGeometry>
        </mxCell>
        <mxCell id="nRilxqQP9LvpIdj3FOjO-48" value="200" style="shape=partialRectangle;html=1;whiteSpace=wrap;connectable=0;strokeColor=inherit;overflow=hidden;fillColor=none;top=0;left=0;bottom=0;right=0;pointerEvents=1;fontSize=16;" vertex="1" parent="nRilxqQP9LvpIdj3FOjO-46">
          <mxGeometry x="60" width="60" height="60" as="geometry">
            <mxRectangle width="60" height="60" as="alternateBounds" />
          </mxGeometry>
        </mxCell>
        <mxCell id="nRilxqQP9LvpIdj3FOjO-49" value="300" style="shape=partialRectangle;html=1;whiteSpace=wrap;connectable=0;strokeColor=inherit;overflow=hidden;fillColor=none;top=0;left=0;bottom=0;right=0;pointerEvents=1;fontSize=16;" vertex="1" parent="nRilxqQP9LvpIdj3FOjO-46">
          <mxGeometry x="120" width="60" height="60" as="geometry">
            <mxRectangle width="60" height="60" as="alternateBounds" />
          </mxGeometry>
        </mxCell>
        <mxCell id="nRilxqQP9LvpIdj3FOjO-50" value="400" style="shape=partialRectangle;html=1;whiteSpace=wrap;connectable=0;strokeColor=inherit;overflow=hidden;fillColor=none;top=0;left=0;bottom=0;right=0;pointerEvents=1;fontSize=16;" vertex="1" parent="nRilxqQP9LvpIdj3FOjO-46">
          <mxGeometry x="180" width="60" height="60" as="geometry">
            <mxRectangle width="60" height="60" as="alternateBounds" />
          </mxGeometry>
        </mxCell>
        <mxCell id="nRilxqQP9LvpIdj3FOjO-51" value="" style="shape=table;startSize=0;container=1;collapsible=0;childLayout=tableLayout;fontSize=16;" vertex="1" parent="1">
          <mxGeometry x="480" y="920" width="120" height="60" as="geometry" />
        </mxCell>
        <mxCell id="nRilxqQP9LvpIdj3FOjO-52" value="" style="shape=tableRow;horizontal=0;startSize=0;swimlaneHead=0;swimlaneBody=0;strokeColor=inherit;top=0;left=0;bottom=0;right=0;collapsible=0;dropTarget=0;fillColor=none;points=[[0,0.5],[1,0.5]];portConstraint=eastwest;fontSize=16;" vertex="1" parent="nRilxqQP9LvpIdj3FOjO-51">
          <mxGeometry width="120" height="60" as="geometry" />
        </mxCell>
        <mxCell id="nRilxqQP9LvpIdj3FOjO-53" value="(n-2)&lt;div&gt;*100&lt;/div&gt;" style="shape=partialRectangle;html=1;whiteSpace=wrap;connectable=0;strokeColor=inherit;overflow=hidden;fillColor=none;top=0;left=0;bottom=0;right=0;pointerEvents=1;fontSize=16;" vertex="1" parent="nRilxqQP9LvpIdj3FOjO-52">
          <mxGeometry width="60" height="60" as="geometry">
            <mxRectangle width="60" height="60" as="alternateBounds" />
          </mxGeometry>
        </mxCell>
        <mxCell id="nRilxqQP9LvpIdj3FOjO-54" value="(n-1)&lt;div&gt;*100&lt;/div&gt;" style="shape=partialRectangle;html=1;whiteSpace=wrap;connectable=0;strokeColor=inherit;overflow=hidden;fillColor=none;top=0;left=0;bottom=0;right=0;pointerEvents=1;fontSize=16;" vertex="1" parent="nRilxqQP9LvpIdj3FOjO-52">
          <mxGeometry x="60" width="60" height="60" as="geometry">
            <mxRectangle width="60" height="60" as="alternateBounds" />
          </mxGeometry>
        </mxCell>
        <mxCell id="nRilxqQP9LvpIdj3FOjO-55" value="" style="shape=table;startSize=0;container=1;collapsible=0;childLayout=tableLayout;fontSize=16;" vertex="1" parent="1">
          <mxGeometry x="200" y="1040" width="240" height="60" as="geometry" />
        </mxCell>
        <mxCell id="nRilxqQP9LvpIdj3FOjO-56" value="" style="shape=tableRow;horizontal=0;startSize=0;swimlaneHead=0;swimlaneBody=0;strokeColor=inherit;top=0;left=0;bottom=0;right=0;collapsible=0;dropTarget=0;fillColor=none;points=[[0,0.5],[1,0.5]];portConstraint=eastwest;fontSize=16;" vertex="1" parent="nRilxqQP9LvpIdj3FOjO-55">
          <mxGeometry width="240" height="60" as="geometry" />
        </mxCell>
        <mxCell id="nRilxqQP9LvpIdj3FOjO-57" value="100" style="shape=partialRectangle;html=1;whiteSpace=wrap;connectable=0;strokeColor=inherit;overflow=hidden;fillColor=none;top=0;left=0;bottom=0;right=0;pointerEvents=1;fontSize=16;" vertex="1" parent="nRilxqQP9LvpIdj3FOjO-56">
          <mxGeometry width="60" height="60" as="geometry">
            <mxRectangle width="60" height="60" as="alternateBounds" />
          </mxGeometry>
        </mxCell>
        <mxCell id="nRilxqQP9LvpIdj3FOjO-58" value="300" style="shape=partialRectangle;html=1;whiteSpace=wrap;connectable=0;strokeColor=inherit;overflow=hidden;fillColor=none;top=0;left=0;bottom=0;right=0;pointerEvents=1;fontSize=16;" vertex="1" parent="nRilxqQP9LvpIdj3FOjO-56">
          <mxGeometry x="60" width="60" height="60" as="geometry">
            <mxRectangle width="60" height="60" as="alternateBounds" />
          </mxGeometry>
        </mxCell>
        <mxCell id="nRilxqQP9LvpIdj3FOjO-59" value="400" style="shape=partialRectangle;html=1;whiteSpace=wrap;connectable=0;strokeColor=inherit;overflow=hidden;fillColor=none;top=0;left=0;bottom=0;right=0;pointerEvents=1;fontSize=16;" vertex="1" parent="nRilxqQP9LvpIdj3FOjO-56">
          <mxGeometry x="120" width="60" height="60" as="geometry">
            <mxRectangle width="60" height="60" as="alternateBounds" />
          </mxGeometry>
        </mxCell>
        <mxCell id="nRilxqQP9LvpIdj3FOjO-60" value="500" style="shape=partialRectangle;html=1;whiteSpace=wrap;connectable=0;strokeColor=inherit;overflow=hidden;fillColor=none;top=0;left=0;bottom=0;right=0;pointerEvents=1;fontSize=16;" vertex="1" parent="nRilxqQP9LvpIdj3FOjO-56">
          <mxGeometry x="180" width="60" height="60" as="geometry">
            <mxRectangle width="60" height="60" as="alternateBounds" />
          </mxGeometry>
        </mxCell>
        <mxCell id="nRilxqQP9LvpIdj3FOjO-61" style="edgeStyle=orthogonalEdgeStyle;rounded=0;orthogonalLoop=1;jettySize=auto;html=1;exitX=0.596;exitY=1.005;exitDx=0;exitDy=0;entryX=0.365;entryY=0.986;entryDx=0;entryDy=0;entryPerimeter=0;curved=1;exitPerimeter=0;" edge="1" parent="nRilxqQP9LvpIdj3FOjO-55" source="nRilxqQP9LvpIdj3FOjO-56" target="nRilxqQP9LvpIdj3FOjO-56">
          <mxGeometry relative="1" as="geometry">
            <mxPoint x="168" y="80" as="sourcePoint" />
            <mxPoint x="90" y="140" as="targetPoint" />
            <Array as="points">
              <mxPoint x="143" y="80" />
              <mxPoint x="88" y="80" />
            </Array>
          </mxGeometry>
        </mxCell>
        <mxCell id="nRilxqQP9LvpIdj3FOjO-62" value="" style="shape=table;startSize=0;container=1;collapsible=0;childLayout=tableLayout;fontSize=16;" vertex="1" parent="1">
          <mxGeometry x="480" y="1040" width="120" height="60" as="geometry" />
        </mxCell>
        <mxCell id="nRilxqQP9LvpIdj3FOjO-63" value="" style="shape=tableRow;horizontal=0;startSize=0;swimlaneHead=0;swimlaneBody=0;strokeColor=inherit;top=0;left=0;bottom=0;right=0;collapsible=0;dropTarget=0;fillColor=none;points=[[0,0.5],[1,0.5]];portConstraint=eastwest;fontSize=16;" vertex="1" parent="nRilxqQP9LvpIdj3FOjO-62">
          <mxGeometry width="120" height="60" as="geometry" />
        </mxCell>
        <mxCell id="nRilxqQP9LvpIdj3FOjO-64" value="(n-1)&lt;div&gt;*100&lt;/div&gt;" style="shape=partialRectangle;html=1;whiteSpace=wrap;connectable=0;strokeColor=inherit;overflow=hidden;fillColor=none;top=0;left=0;bottom=0;right=0;pointerEvents=1;fontSize=16;" vertex="1" parent="nRilxqQP9LvpIdj3FOjO-63">
          <mxGeometry width="60" height="60" as="geometry">
            <mxRectangle width="60" height="60" as="alternateBounds" />
          </mxGeometry>
        </mxCell>
        <mxCell id="nRilxqQP9LvpIdj3FOjO-65" value="" style="shape=partialRectangle;html=1;whiteSpace=wrap;connectable=0;strokeColor=inherit;overflow=hidden;fillColor=none;top=0;left=0;bottom=0;right=0;pointerEvents=1;fontSize=16;" vertex="1" parent="nRilxqQP9LvpIdj3FOjO-63">
          <mxGeometry x="60" width="60" height="60" as="geometry">
            <mxRectangle width="60" height="60" as="alternateBounds" />
          </mxGeometry>
        </mxCell>
        <mxCell id="nRilxqQP9LvpIdj3FOjO-66" value="&lt;font style=&quot;font-size: 18px;&quot;&gt;200&lt;/font&gt;" style="whiteSpace=wrap;html=1;aspect=fixed;fillColor=#ffe7e5;strokeColor=#b85450;dashed=1;" vertex="1" parent="1">
          <mxGeometry x="150" y="1130" width="60" height="60" as="geometry" />
        </mxCell>
        <mxCell id="nRilxqQP9LvpIdj3FOjO-67" style="edgeStyle=orthogonalEdgeStyle;rounded=0;orthogonalLoop=1;jettySize=auto;html=1;exitX=0.363;exitY=0.976;exitDx=0;exitDy=0;entryX=1;entryY=0.5;entryDx=0;entryDy=0;curved=1;fillColor=#f8cecc;strokeColor=#b85450;dashed=1;strokeWidth=1;exitPerimeter=0;" edge="1" parent="1" source="nRilxqQP9LvpIdj3FOjO-55" target="nRilxqQP9LvpIdj3FOjO-66">
          <mxGeometry relative="1" as="geometry">
            <mxPoint x="251.49142857142851" y="1141.5285714285715" as="sourcePoint" />
            <mxPoint x="329.57142857142844" y="1201.8285714285714" as="targetPoint" />
          </mxGeometry>
        </mxCell>
        <mxCell id="nRilxqQP9LvpIdj3FOjO-68" style="edgeStyle=orthogonalEdgeStyle;rounded=0;orthogonalLoop=1;jettySize=auto;html=1;exitX=0.365;exitY=0.986;exitDx=0;exitDy=0;entryX=0.596;entryY=1.005;entryDx=0;entryDy=0;entryPerimeter=0;curved=1;exitPerimeter=0;" edge="1" parent="1">
          <mxGeometry relative="1" as="geometry">
            <mxPoint x="415" y="1101" as="sourcePoint" />
            <mxPoint x="360" y="1100" as="targetPoint" />
            <Array as="points">
              <mxPoint x="415" y="1121" />
              <mxPoint x="360" y="1121" />
            </Array>
          </mxGeometry>
        </mxCell>
        <mxCell id="nRilxqQP9LvpIdj3FOjO-69" style="edgeStyle=orthogonalEdgeStyle;rounded=0;orthogonalLoop=1;jettySize=auto;html=1;exitX=0.365;exitY=0.986;exitDx=0;exitDy=0;entryX=0.596;entryY=1.005;entryDx=0;entryDy=0;entryPerimeter=0;curved=1;exitPerimeter=0;" edge="1" parent="1">
          <mxGeometry relative="1" as="geometry">
            <mxPoint x="515" y="1101" as="sourcePoint" />
            <mxPoint x="460" y="1100" as="targetPoint" />
            <Array as="points">
              <mxPoint x="515" y="1121" />
              <mxPoint x="460" y="1121" />
            </Array>
          </mxGeometry>
        </mxCell>
        <mxCell id="nRilxqQP9LvpIdj3FOjO-70" style="edgeStyle=orthogonalEdgeStyle;rounded=0;orthogonalLoop=1;jettySize=auto;html=1;exitX=0.365;exitY=0.986;exitDx=0;exitDy=0;entryX=0.596;entryY=1.005;entryDx=0;entryDy=0;entryPerimeter=0;curved=1;exitPerimeter=0;" edge="1" parent="1">
          <mxGeometry relative="1" as="geometry">
            <mxPoint x="575" y="1101" as="sourcePoint" />
            <mxPoint x="520" y="1100" as="targetPoint" />
            <Array as="points">
              <mxPoint x="575" y="1121" />
              <mxPoint x="520" y="1121" />
            </Array>
          </mxGeometry>
        </mxCell>
        <mxCell id="nRilxqQP9LvpIdj3FOjO-71" value="&lt;font style=&quot;font-size: 18px;&quot;&gt;...&lt;/font&gt;" style="whiteSpace=wrap;html=1;aspect=fixed;dashed=1;strokeColor=none;" vertex="1" parent="1">
          <mxGeometry x="445" y="935" width="30" height="30" as="geometry" />
        </mxCell>
        <mxCell id="nRilxqQP9LvpIdj3FOjO-72" value="&lt;font style=&quot;font-size: 18px;&quot;&gt;...&lt;/font&gt;" style="whiteSpace=wrap;html=1;aspect=fixed;dashed=1;strokeColor=none;" vertex="1" parent="1">
          <mxGeometry x="445" y="1055" width="30" height="30" as="geometry" />
        </mxCell>
        <mxCell id="nRilxqQP9LvpIdj3FOjO-89" value="" style="rounded=0;whiteSpace=wrap;html=1;" vertex="1" parent="1">
          <mxGeometry x="800" y="480" width="460" height="450" as="geometry" />
        </mxCell>
        <mxCell id="nRilxqQP9LvpIdj3FOjO-73" value="" style="shape=table;startSize=0;container=1;collapsible=0;childLayout=tableLayout;fontSize=16;" vertex="1" parent="1">
          <mxGeometry x="871" y="535" width="90" height="70" as="geometry" />
        </mxCell>
        <mxCell id="nRilxqQP9LvpIdj3FOjO-74" value="" style="shape=tableRow;horizontal=0;startSize=0;swimlaneHead=0;swimlaneBody=0;strokeColor=inherit;top=0;left=0;bottom=0;right=0;collapsible=0;dropTarget=0;fillColor=none;points=[[0,0.5],[1,0.5]];portConstraint=eastwest;fontSize=16;" vertex="1" parent="nRilxqQP9LvpIdj3FOjO-73">
          <mxGeometry width="90" height="35" as="geometry" />
        </mxCell>
        <mxCell id="nRilxqQP9LvpIdj3FOjO-75" value="data" style="shape=partialRectangle;html=1;whiteSpace=wrap;connectable=0;strokeColor=#d6b656;overflow=hidden;fillColor=#fff2cc;top=0;left=0;bottom=0;right=0;pointerEvents=1;fontSize=16;" vertex="1" parent="nRilxqQP9LvpIdj3FOjO-74">
          <mxGeometry width="90" height="35" as="geometry">
            <mxRectangle width="90" height="35" as="alternateBounds" />
          </mxGeometry>
        </mxCell>
        <mxCell id="nRilxqQP9LvpIdj3FOjO-78" value="" style="shape=tableRow;horizontal=0;startSize=0;swimlaneHead=0;swimlaneBody=0;strokeColor=inherit;top=0;left=0;bottom=0;right=0;collapsible=0;dropTarget=0;fillColor=none;points=[[0,0.5],[1,0.5]];portConstraint=eastwest;fontSize=16;" vertex="1" parent="nRilxqQP9LvpIdj3FOjO-73">
          <mxGeometry y="35" width="90" height="35" as="geometry" />
        </mxCell>
        <mxCell id="nRilxqQP9LvpIdj3FOjO-79" value="link" style="shape=partialRectangle;html=1;whiteSpace=wrap;connectable=0;strokeColor=#6c8ebf;overflow=hidden;fillColor=#dae8fc;top=0;left=0;bottom=0;right=0;pointerEvents=1;fontSize=16;" vertex="1" parent="nRilxqQP9LvpIdj3FOjO-78">
          <mxGeometry width="90" height="35" as="geometry">
            <mxRectangle width="90" height="35" as="alternateBounds" />
          </mxGeometry>
        </mxCell>
        <mxCell id="nRilxqQP9LvpIdj3FOjO-87" value="리스트 원소의 데이터 값" style="text;strokeColor=none;align=left;fillColor=none;html=1;verticalAlign=middle;whiteSpace=wrap;rounded=0;" vertex="1" parent="1">
          <mxGeometry x="981" y="535" width="260" height="30" as="geometry" />
        </mxCell>
        <mxCell id="nRilxqQP9LvpIdj3FOjO-88" value="리스트 다음 원소 노드의 저장 위치" style="text;strokeColor=none;align=left;fillColor=none;html=1;verticalAlign=middle;whiteSpace=wrap;rounded=0;" vertex="1" parent="1">
          <mxGeometry x="981" y="575" width="260" height="30" as="geometry" />
        </mxCell>
        <mxCell id="nRilxqQP9LvpIdj3FOjO-91" value="&lt;b&gt;node&lt;/b&gt;" style="rounded=0;whiteSpace=wrap;html=1;fillColor=#f5f5f5;fontColor=#333333;strokeColor=#666666;" vertex="1" parent="1">
          <mxGeometry x="970" y="480" width="120" height="20" as="geometry" />
        </mxCell>
        <mxCell id="nRilxqQP9LvpIdj3FOjO-93" value="" style="endArrow=none;dashed=1;html=1;rounded=0;exitX=0;exitY=0.5;exitDx=0;exitDy=0;entryX=1;entryY=0.5;entryDx=0;entryDy=0;" edge="1" parent="1">
          <mxGeometry width="50" height="50" relative="1" as="geometry">
            <mxPoint x="800" y="655" as="sourcePoint" />
            <mxPoint x="1260" y="655" as="targetPoint" />
          </mxGeometry>
        </mxCell>
        <mxCell id="nRilxqQP9LvpIdj3FOjO-94" value="&lt;b&gt;리스트의 모습&lt;/b&gt;" style="rounded=0;whiteSpace=wrap;html=1;fillColor=#f5f5f5;fontColor=#333333;strokeColor=#666666;" vertex="1" parent="1">
          <mxGeometry x="970" y="655" width="120" height="20" as="geometry" />
        </mxCell>
        <mxCell id="nRilxqQP9LvpIdj3FOjO-95" value="" style="shape=table;startSize=0;container=1;collapsible=0;childLayout=tableLayout;fontSize=12;" vertex="1" parent="1">
          <mxGeometry x="1000.5" y="690" width="59" height="50" as="geometry" />
        </mxCell>
        <mxCell id="nRilxqQP9LvpIdj3FOjO-96" value="" style="shape=tableRow;horizontal=0;startSize=0;swimlaneHead=0;swimlaneBody=0;strokeColor=inherit;top=0;left=0;bottom=0;right=0;collapsible=0;dropTarget=0;fillColor=none;points=[[0,0.5],[1,0.5]];portConstraint=eastwest;fontSize=16;" vertex="1" parent="nRilxqQP9LvpIdj3FOjO-95">
          <mxGeometry width="59" height="25" as="geometry" />
        </mxCell>
        <mxCell id="nRilxqQP9LvpIdj3FOjO-97" value="100" style="shape=partialRectangle;html=1;whiteSpace=wrap;connectable=0;strokeColor=#d6b656;overflow=hidden;fillColor=#fff2cc;top=0;left=0;bottom=0;right=0;pointerEvents=1;fontSize=12;" vertex="1" parent="nRilxqQP9LvpIdj3FOjO-96">
          <mxGeometry width="59" height="25" as="geometry">
            <mxRectangle width="59" height="25" as="alternateBounds" />
          </mxGeometry>
        </mxCell>
        <mxCell id="nRilxqQP9LvpIdj3FOjO-98" value="" style="shape=tableRow;horizontal=0;startSize=0;swimlaneHead=0;swimlaneBody=0;strokeColor=inherit;top=0;left=0;bottom=0;right=0;collapsible=0;dropTarget=0;fillColor=none;points=[[0,0.5],[1,0.5]];portConstraint=eastwest;fontSize=16;" vertex="1" parent="nRilxqQP9LvpIdj3FOjO-95">
          <mxGeometry y="25" width="59" height="25" as="geometry" />
        </mxCell>
        <mxCell id="nRilxqQP9LvpIdj3FOjO-99" value="1050" style="shape=partialRectangle;html=1;whiteSpace=wrap;connectable=0;strokeColor=#6c8ebf;overflow=hidden;fillColor=#dae8fc;top=0;left=0;bottom=0;right=0;pointerEvents=1;fontSize=12;" vertex="1" parent="nRilxqQP9LvpIdj3FOjO-98">
          <mxGeometry width="59" height="25" as="geometry">
            <mxRectangle width="59" height="25" as="alternateBounds" />
          </mxGeometry>
        </mxCell>
        <mxCell id="nRilxqQP9LvpIdj3FOjO-100" value="" style="shape=table;startSize=0;container=1;collapsible=0;childLayout=tableLayout;fontSize=12;" vertex="1" parent="1">
          <mxGeometry x="868" y="715" width="59" height="125" as="geometry" />
        </mxCell>
        <mxCell id="nRilxqQP9LvpIdj3FOjO-101" value="" style="shape=tableRow;horizontal=0;startSize=0;swimlaneHead=0;swimlaneBody=0;strokeColor=inherit;top=0;left=0;bottom=0;right=0;collapsible=0;dropTarget=0;fillColor=none;points=[[0,0.5],[1,0.5]];portConstraint=eastwest;fontSize=16;" vertex="1" parent="nRilxqQP9LvpIdj3FOjO-100">
          <mxGeometry width="59" height="25" as="geometry" />
        </mxCell>
        <mxCell id="nRilxqQP9LvpIdj3FOjO-102" value="100" style="shape=partialRectangle;html=1;whiteSpace=wrap;connectable=0;strokeColor=inherit;overflow=hidden;fillColor=none;top=0;left=0;bottom=0;right=0;pointerEvents=1;fontSize=12;" vertex="1" parent="nRilxqQP9LvpIdj3FOjO-101">
          <mxGeometry width="59" height="25" as="geometry">
            <mxRectangle width="59" height="25" as="alternateBounds" />
          </mxGeometry>
        </mxCell>
        <mxCell id="nRilxqQP9LvpIdj3FOjO-103" value="" style="shape=tableRow;horizontal=0;startSize=0;swimlaneHead=0;swimlaneBody=0;strokeColor=inherit;top=0;left=0;bottom=0;right=0;collapsible=0;dropTarget=0;fillColor=none;points=[[0,0.5],[1,0.5]];portConstraint=eastwest;fontSize=16;" vertex="1" parent="nRilxqQP9LvpIdj3FOjO-100">
          <mxGeometry y="25" width="59" height="25" as="geometry" />
        </mxCell>
        <mxCell id="nRilxqQP9LvpIdj3FOjO-104" value="200" style="shape=partialRectangle;html=1;whiteSpace=wrap;connectable=0;strokeColor=inherit;overflow=hidden;fillColor=none;top=0;left=0;bottom=0;right=0;pointerEvents=1;fontSize=12;" vertex="1" parent="nRilxqQP9LvpIdj3FOjO-103">
          <mxGeometry width="59" height="25" as="geometry">
            <mxRectangle width="59" height="25" as="alternateBounds" />
          </mxGeometry>
        </mxCell>
        <mxCell id="nRilxqQP9LvpIdj3FOjO-105" style="shape=tableRow;horizontal=0;startSize=0;swimlaneHead=0;swimlaneBody=0;strokeColor=inherit;top=0;left=0;bottom=0;right=0;collapsible=0;dropTarget=0;fillColor=none;points=[[0,0.5],[1,0.5]];portConstraint=eastwest;fontSize=16;" vertex="1" parent="nRilxqQP9LvpIdj3FOjO-100">
          <mxGeometry y="50" width="59" height="25" as="geometry" />
        </mxCell>
        <mxCell id="nRilxqQP9LvpIdj3FOjO-106" value="300" style="shape=partialRectangle;html=1;whiteSpace=wrap;connectable=0;strokeColor=inherit;overflow=hidden;fillColor=none;top=0;left=0;bottom=0;right=0;pointerEvents=1;fontSize=12;" vertex="1" parent="nRilxqQP9LvpIdj3FOjO-105">
          <mxGeometry width="59" height="25" as="geometry">
            <mxRectangle width="59" height="25" as="alternateBounds" />
          </mxGeometry>
        </mxCell>
        <mxCell id="nRilxqQP9LvpIdj3FOjO-107" style="shape=tableRow;horizontal=0;startSize=0;swimlaneHead=0;swimlaneBody=0;strokeColor=inherit;top=0;left=0;bottom=0;right=0;collapsible=0;dropTarget=0;fillColor=none;points=[[0,0.5],[1,0.5]];portConstraint=eastwest;fontSize=16;" vertex="1" parent="nRilxqQP9LvpIdj3FOjO-100">
          <mxGeometry y="75" width="59" height="25" as="geometry" />
        </mxCell>
        <mxCell id="nRilxqQP9LvpIdj3FOjO-108" value="..." style="shape=partialRectangle;html=1;whiteSpace=wrap;connectable=0;strokeColor=inherit;overflow=hidden;fillColor=none;top=0;left=0;bottom=0;right=0;pointerEvents=1;fontSize=12;" vertex="1" parent="nRilxqQP9LvpIdj3FOjO-107">
          <mxGeometry width="59" height="25" as="geometry">
            <mxRectangle width="59" height="25" as="alternateBounds" />
          </mxGeometry>
        </mxCell>
        <mxCell id="nRilxqQP9LvpIdj3FOjO-109" style="shape=tableRow;horizontal=0;startSize=0;swimlaneHead=0;swimlaneBody=0;strokeColor=inherit;top=0;left=0;bottom=0;right=0;collapsible=0;dropTarget=0;fillColor=none;points=[[0,0.5],[1,0.5]];portConstraint=eastwest;fontSize=16;" vertex="1" parent="nRilxqQP9LvpIdj3FOjO-100">
          <mxGeometry y="100" width="59" height="25" as="geometry" />
        </mxCell>
        <mxCell id="nRilxqQP9LvpIdj3FOjO-110" value="1000" style="shape=partialRectangle;html=1;whiteSpace=wrap;connectable=0;strokeColor=inherit;overflow=hidden;fillColor=none;top=0;left=0;bottom=0;right=0;pointerEvents=1;fontSize=12;" vertex="1" parent="nRilxqQP9LvpIdj3FOjO-109">
          <mxGeometry width="59" height="25" as="geometry">
            <mxRectangle width="59" height="25" as="alternateBounds" />
          </mxGeometry>
        </mxCell>
        <mxCell id="nRilxqQP9LvpIdj3FOjO-111" value="" style="shape=table;startSize=0;container=1;collapsible=0;childLayout=tableLayout;fontSize=12;strokeColor=none;" vertex="1" parent="1">
          <mxGeometry x="827" y="715" width="40" height="125" as="geometry" />
        </mxCell>
        <mxCell id="nRilxqQP9LvpIdj3FOjO-112" value="" style="shape=tableRow;horizontal=0;startSize=0;swimlaneHead=0;swimlaneBody=0;strokeColor=inherit;top=0;left=0;bottom=0;right=0;collapsible=0;dropTarget=0;fillColor=none;points=[[0,0.5],[1,0.5]];portConstraint=eastwest;fontSize=16;" vertex="1" parent="nRilxqQP9LvpIdj3FOjO-111">
          <mxGeometry width="40" height="25" as="geometry" />
        </mxCell>
        <mxCell id="nRilxqQP9LvpIdj3FOjO-113" value="[ 0 ]" style="shape=partialRectangle;html=1;whiteSpace=wrap;connectable=0;strokeColor=inherit;overflow=hidden;fillColor=none;top=0;left=0;bottom=0;right=0;pointerEvents=1;fontSize=12;" vertex="1" parent="nRilxqQP9LvpIdj3FOjO-112">
          <mxGeometry width="40" height="25" as="geometry">
            <mxRectangle width="40" height="25" as="alternateBounds" />
          </mxGeometry>
        </mxCell>
        <mxCell id="nRilxqQP9LvpIdj3FOjO-114" value="" style="shape=tableRow;horizontal=0;startSize=0;swimlaneHead=0;swimlaneBody=0;strokeColor=inherit;top=0;left=0;bottom=0;right=0;collapsible=0;dropTarget=0;fillColor=none;points=[[0,0.5],[1,0.5]];portConstraint=eastwest;fontSize=16;" vertex="1" parent="nRilxqQP9LvpIdj3FOjO-111">
          <mxGeometry y="25" width="40" height="25" as="geometry" />
        </mxCell>
        <mxCell id="nRilxqQP9LvpIdj3FOjO-115" value="[ 1 ]" style="shape=partialRectangle;html=1;whiteSpace=wrap;connectable=0;strokeColor=inherit;overflow=hidden;fillColor=none;top=0;left=0;bottom=0;right=0;pointerEvents=1;fontSize=12;" vertex="1" parent="nRilxqQP9LvpIdj3FOjO-114">
          <mxGeometry width="40" height="25" as="geometry">
            <mxRectangle width="40" height="25" as="alternateBounds" />
          </mxGeometry>
        </mxCell>
        <mxCell id="nRilxqQP9LvpIdj3FOjO-116" style="shape=tableRow;horizontal=0;startSize=0;swimlaneHead=0;swimlaneBody=0;strokeColor=inherit;top=0;left=0;bottom=0;right=0;collapsible=0;dropTarget=0;fillColor=none;points=[[0,0.5],[1,0.5]];portConstraint=eastwest;fontSize=16;" vertex="1" parent="nRilxqQP9LvpIdj3FOjO-111">
          <mxGeometry y="50" width="40" height="25" as="geometry" />
        </mxCell>
        <mxCell id="nRilxqQP9LvpIdj3FOjO-117" value="[ 2 ]" style="shape=partialRectangle;html=1;whiteSpace=wrap;connectable=0;strokeColor=inherit;overflow=hidden;fillColor=none;top=0;left=0;bottom=0;right=0;pointerEvents=1;fontSize=12;" vertex="1" parent="nRilxqQP9LvpIdj3FOjO-116">
          <mxGeometry width="40" height="25" as="geometry">
            <mxRectangle width="40" height="25" as="alternateBounds" />
          </mxGeometry>
        </mxCell>
        <mxCell id="nRilxqQP9LvpIdj3FOjO-118" style="shape=tableRow;horizontal=0;startSize=0;swimlaneHead=0;swimlaneBody=0;strokeColor=inherit;top=0;left=0;bottom=0;right=0;collapsible=0;dropTarget=0;fillColor=none;points=[[0,0.5],[1,0.5]];portConstraint=eastwest;fontSize=16;" vertex="1" parent="nRilxqQP9LvpIdj3FOjO-111">
          <mxGeometry y="75" width="40" height="25" as="geometry" />
        </mxCell>
        <mxCell id="nRilxqQP9LvpIdj3FOjO-119" value="..." style="shape=partialRectangle;html=1;whiteSpace=wrap;connectable=0;strokeColor=inherit;overflow=hidden;fillColor=none;top=0;left=0;bottom=0;right=0;pointerEvents=1;fontSize=12;" vertex="1" parent="nRilxqQP9LvpIdj3FOjO-118">
          <mxGeometry width="40" height="25" as="geometry">
            <mxRectangle width="40" height="25" as="alternateBounds" />
          </mxGeometry>
        </mxCell>
        <mxCell id="nRilxqQP9LvpIdj3FOjO-120" style="shape=tableRow;horizontal=0;startSize=0;swimlaneHead=0;swimlaneBody=0;strokeColor=inherit;top=0;left=0;bottom=0;right=0;collapsible=0;dropTarget=0;fillColor=none;points=[[0,0.5],[1,0.5]];portConstraint=eastwest;fontSize=16;" vertex="1" parent="nRilxqQP9LvpIdj3FOjO-111">
          <mxGeometry y="100" width="40" height="25" as="geometry" />
        </mxCell>
        <mxCell id="nRilxqQP9LvpIdj3FOjO-121" value="[ 9 ]" style="shape=partialRectangle;html=1;whiteSpace=wrap;connectable=0;strokeColor=inherit;overflow=hidden;fillColor=none;top=0;left=0;bottom=0;right=0;pointerEvents=1;fontSize=12;" vertex="1" parent="nRilxqQP9LvpIdj3FOjO-120">
          <mxGeometry width="40" height="25" as="geometry">
            <mxRectangle width="40" height="25" as="alternateBounds" />
          </mxGeometry>
        </mxCell>
        <mxCell id="nRilxqQP9LvpIdj3FOjO-122" value="" style="shape=table;startSize=0;container=1;collapsible=0;childLayout=tableLayout;fontSize=12;" vertex="1" parent="1">
          <mxGeometry x="1000.5" y="750" width="59" height="50" as="geometry" />
        </mxCell>
        <mxCell id="nRilxqQP9LvpIdj3FOjO-123" value="" style="shape=tableRow;horizontal=0;startSize=0;swimlaneHead=0;swimlaneBody=0;strokeColor=inherit;top=0;left=0;bottom=0;right=0;collapsible=0;dropTarget=0;fillColor=none;points=[[0,0.5],[1,0.5]];portConstraint=eastwest;fontSize=16;" vertex="1" parent="nRilxqQP9LvpIdj3FOjO-122">
          <mxGeometry width="59" height="25" as="geometry" />
        </mxCell>
        <mxCell id="nRilxqQP9LvpIdj3FOjO-124" value="200" style="shape=partialRectangle;html=1;whiteSpace=wrap;connectable=0;strokeColor=#d6b656;overflow=hidden;fillColor=#fff2cc;top=0;left=0;bottom=0;right=0;pointerEvents=1;fontSize=12;" vertex="1" parent="nRilxqQP9LvpIdj3FOjO-123">
          <mxGeometry width="59" height="25" as="geometry">
            <mxRectangle width="59" height="25" as="alternateBounds" />
          </mxGeometry>
        </mxCell>
        <mxCell id="nRilxqQP9LvpIdj3FOjO-125" value="" style="shape=tableRow;horizontal=0;startSize=0;swimlaneHead=0;swimlaneBody=0;strokeColor=inherit;top=0;left=0;bottom=0;right=0;collapsible=0;dropTarget=0;fillColor=none;points=[[0,0.5],[1,0.5]];portConstraint=eastwest;fontSize=16;" vertex="1" parent="nRilxqQP9LvpIdj3FOjO-122">
          <mxGeometry y="25" width="59" height="25" as="geometry" />
        </mxCell>
        <mxCell id="nRilxqQP9LvpIdj3FOjO-126" value="1002" style="shape=partialRectangle;html=1;whiteSpace=wrap;connectable=0;strokeColor=#6c8ebf;overflow=hidden;fillColor=#dae8fc;top=0;left=0;bottom=0;right=0;pointerEvents=1;fontSize=12;" vertex="1" parent="nRilxqQP9LvpIdj3FOjO-125">
          <mxGeometry width="59" height="25" as="geometry">
            <mxRectangle width="59" height="25" as="alternateBounds" />
          </mxGeometry>
        </mxCell>
        <mxCell id="nRilxqQP9LvpIdj3FOjO-127" value="" style="shape=table;startSize=0;container=1;collapsible=0;childLayout=tableLayout;fontSize=12;" vertex="1" parent="1">
          <mxGeometry x="1000.5" y="810" width="59" height="50" as="geometry" />
        </mxCell>
        <mxCell id="nRilxqQP9LvpIdj3FOjO-128" value="" style="shape=tableRow;horizontal=0;startSize=0;swimlaneHead=0;swimlaneBody=0;strokeColor=inherit;top=0;left=0;bottom=0;right=0;collapsible=0;dropTarget=0;fillColor=none;points=[[0,0.5],[1,0.5]];portConstraint=eastwest;fontSize=16;" vertex="1" parent="nRilxqQP9LvpIdj3FOjO-127">
          <mxGeometry width="59" height="25" as="geometry" />
        </mxCell>
        <mxCell id="nRilxqQP9LvpIdj3FOjO-129" value="1000" style="shape=partialRectangle;html=1;whiteSpace=wrap;connectable=0;strokeColor=#d6b656;overflow=hidden;fillColor=#fff2cc;top=0;left=0;bottom=0;right=0;pointerEvents=1;fontSize=12;" vertex="1" parent="nRilxqQP9LvpIdj3FOjO-128">
          <mxGeometry width="59" height="25" as="geometry">
            <mxRectangle width="59" height="25" as="alternateBounds" />
          </mxGeometry>
        </mxCell>
        <mxCell id="nRilxqQP9LvpIdj3FOjO-130" value="" style="shape=tableRow;horizontal=0;startSize=0;swimlaneHead=0;swimlaneBody=0;strokeColor=inherit;top=0;left=0;bottom=0;right=0;collapsible=0;dropTarget=0;fillColor=none;points=[[0,0.5],[1,0.5]];portConstraint=eastwest;fontSize=16;" vertex="1" parent="nRilxqQP9LvpIdj3FOjO-127">
          <mxGeometry y="25" width="59" height="25" as="geometry" />
        </mxCell>
        <mxCell id="nRilxqQP9LvpIdj3FOjO-131" value="\0" style="shape=partialRectangle;html=1;whiteSpace=wrap;connectable=0;strokeColor=#6c8ebf;overflow=hidden;fillColor=#dae8fc;top=0;left=0;bottom=0;right=0;pointerEvents=1;fontSize=12;" vertex="1" parent="nRilxqQP9LvpIdj3FOjO-130">
          <mxGeometry width="59" height="25" as="geometry">
            <mxRectangle width="59" height="25" as="alternateBounds" />
          </mxGeometry>
        </mxCell>
        <mxCell id="nRilxqQP9LvpIdj3FOjO-132" value="&lt;b&gt;리스트의&lt;/b&gt;&lt;div&gt;&lt;b&gt;추상적 모습&lt;/b&gt;&lt;/div&gt;" style="rounded=0;whiteSpace=wrap;html=1;fillColor=none;fontColor=#333333;strokeColor=none;" vertex="1" parent="1">
          <mxGeometry x="827" y="880" width="120" height="30" as="geometry" />
        </mxCell>
        <mxCell id="nRilxqQP9LvpIdj3FOjO-133" value="&lt;b&gt;리스트를 구성하는&lt;/b&gt;&lt;div&gt;&lt;b&gt;노드들&lt;/b&gt;&lt;/div&gt;" style="rounded=0;whiteSpace=wrap;html=1;fillColor=none;fontColor=#333333;strokeColor=none;" vertex="1" parent="1">
          <mxGeometry x="970" y="880" width="120" height="30" as="geometry" />
        </mxCell>
        <mxCell id="nRilxqQP9LvpIdj3FOjO-134" style="edgeStyle=orthogonalEdgeStyle;rounded=0;orthogonalLoop=1;jettySize=auto;html=1;exitX=1;exitY=0.5;exitDx=0;exitDy=0;entryX=0;entryY=0.5;entryDx=0;entryDy=0;curved=1;endArrow=none;endFill=0;" edge="1" parent="1" source="nRilxqQP9LvpIdj3FOjO-101" target="nRilxqQP9LvpIdj3FOjO-95">
          <mxGeometry relative="1" as="geometry" />
        </mxCell>
        <mxCell id="nRilxqQP9LvpIdj3FOjO-135" style="edgeStyle=orthogonalEdgeStyle;rounded=0;orthogonalLoop=1;jettySize=auto;html=1;exitX=1;exitY=0.5;exitDx=0;exitDy=0;entryX=0;entryY=0.5;entryDx=0;entryDy=0;curved=1;endArrow=none;endFill=0;" edge="1" parent="1" source="nRilxqQP9LvpIdj3FOjO-103" target="nRilxqQP9LvpIdj3FOjO-122">
          <mxGeometry relative="1" as="geometry" />
        </mxCell>
        <mxCell id="nRilxqQP9LvpIdj3FOjO-136" style="edgeStyle=orthogonalEdgeStyle;rounded=0;orthogonalLoop=1;jettySize=auto;html=1;exitX=1;exitY=0.5;exitDx=0;exitDy=0;entryX=0;entryY=0.5;entryDx=0;entryDy=0;endArrow=none;endFill=0;curved=1;" edge="1" parent="1" source="nRilxqQP9LvpIdj3FOjO-109" target="nRilxqQP9LvpIdj3FOjO-127">
          <mxGeometry relative="1" as="geometry" />
        </mxCell>
        <mxCell id="nRilxqQP9LvpIdj3FOjO-153" value="" style="group" vertex="1" connectable="0" parent="1">
          <mxGeometry x="1116" y="685" width="59" height="185" as="geometry" />
        </mxCell>
        <mxCell id="nRilxqQP9LvpIdj3FOjO-152" value="" style="rounded=0;whiteSpace=wrap;html=1;" vertex="1" parent="nRilxqQP9LvpIdj3FOjO-153">
          <mxGeometry x="5" width="49" height="185" as="geometry" />
        </mxCell>
        <mxCell id="nRilxqQP9LvpIdj3FOjO-137" value="" style="shape=table;startSize=0;container=1;collapsible=0;childLayout=tableLayout;fontSize=12;fillColor=none;strokeColor=none;swimlaneLine=1;" vertex="1" parent="nRilxqQP9LvpIdj3FOjO-153">
          <mxGeometry y="5" width="59" height="175" as="geometry" />
        </mxCell>
        <mxCell id="nRilxqQP9LvpIdj3FOjO-138" value="" style="shape=tableRow;horizontal=0;startSize=0;swimlaneHead=0;swimlaneBody=0;strokeColor=inherit;top=0;left=0;bottom=0;right=0;collapsible=0;dropTarget=0;fillColor=none;points=[[0,0.5],[1,0.5]];portConstraint=eastwest;fontSize=16;" vertex="1" parent="nRilxqQP9LvpIdj3FOjO-137">
          <mxGeometry width="59" height="25" as="geometry" />
        </mxCell>
        <mxCell id="nRilxqQP9LvpIdj3FOjO-139" value="1002" style="shape=partialRectangle;html=1;whiteSpace=wrap;connectable=0;strokeColor=inherit;overflow=hidden;fillColor=none;top=0;left=0;bottom=0;right=0;pointerEvents=1;fontSize=12;" vertex="1" parent="nRilxqQP9LvpIdj3FOjO-138">
          <mxGeometry width="59" height="25" as="geometry">
            <mxRectangle width="59" height="25" as="alternateBounds" />
          </mxGeometry>
        </mxCell>
        <mxCell id="nRilxqQP9LvpIdj3FOjO-140" value="" style="shape=tableRow;horizontal=0;startSize=0;swimlaneHead=0;swimlaneBody=0;strokeColor=inherit;top=0;left=0;bottom=0;right=0;collapsible=0;dropTarget=0;fillColor=none;points=[[0,0.5],[1,0.5]];portConstraint=eastwest;fontSize=16;" vertex="1" parent="nRilxqQP9LvpIdj3FOjO-137">
          <mxGeometry y="25" width="59" height="25" as="geometry" />
        </mxCell>
        <mxCell id="nRilxqQP9LvpIdj3FOjO-141" value="1006" style="shape=partialRectangle;html=1;whiteSpace=wrap;connectable=0;strokeColor=inherit;overflow=hidden;fillColor=none;top=0;left=0;bottom=0;right=0;pointerEvents=1;fontSize=12;" vertex="1" parent="nRilxqQP9LvpIdj3FOjO-140">
          <mxGeometry width="59" height="25" as="geometry">
            <mxRectangle width="59" height="25" as="alternateBounds" />
          </mxGeometry>
        </mxCell>
        <mxCell id="nRilxqQP9LvpIdj3FOjO-142" style="shape=tableRow;horizontal=0;startSize=0;swimlaneHead=0;swimlaneBody=0;strokeColor=inherit;top=0;left=0;bottom=0;right=0;collapsible=0;dropTarget=0;fillColor=none;points=[[0,0.5],[1,0.5]];portConstraint=eastwest;fontSize=16;" vertex="1" parent="nRilxqQP9LvpIdj3FOjO-137">
          <mxGeometry y="50" width="59" height="25" as="geometry" />
        </mxCell>
        <mxCell id="nRilxqQP9LvpIdj3FOjO-143" value="..." style="shape=partialRectangle;html=1;whiteSpace=wrap;connectable=0;strokeColor=inherit;overflow=hidden;fillColor=none;top=0;left=0;bottom=0;right=0;pointerEvents=1;fontSize=12;" vertex="1" parent="nRilxqQP9LvpIdj3FOjO-142">
          <mxGeometry width="59" height="25" as="geometry">
            <mxRectangle width="59" height="25" as="alternateBounds" />
          </mxGeometry>
        </mxCell>
        <mxCell id="nRilxqQP9LvpIdj3FOjO-144" style="shape=tableRow;horizontal=0;startSize=0;swimlaneHead=0;swimlaneBody=0;strokeColor=inherit;top=0;left=0;bottom=0;right=0;collapsible=0;dropTarget=0;fillColor=none;points=[[0,0.5],[1,0.5]];portConstraint=eastwest;fontSize=16;" vertex="1" parent="nRilxqQP9LvpIdj3FOjO-137">
          <mxGeometry y="75" width="59" height="25" as="geometry" />
        </mxCell>
        <mxCell id="nRilxqQP9LvpIdj3FOjO-145" value="1050" style="shape=partialRectangle;html=1;whiteSpace=wrap;connectable=0;strokeColor=inherit;overflow=hidden;fillColor=none;top=0;left=0;bottom=0;right=0;pointerEvents=1;fontSize=12;" vertex="1" parent="nRilxqQP9LvpIdj3FOjO-144">
          <mxGeometry width="59" height="25" as="geometry">
            <mxRectangle width="59" height="25" as="alternateBounds" />
          </mxGeometry>
        </mxCell>
        <mxCell id="nRilxqQP9LvpIdj3FOjO-146" style="shape=tableRow;horizontal=0;startSize=0;swimlaneHead=0;swimlaneBody=0;strokeColor=inherit;top=0;left=0;bottom=0;right=0;collapsible=0;dropTarget=0;fillColor=none;points=[[0,0.5],[1,0.5]];portConstraint=eastwest;fontSize=16;" vertex="1" parent="nRilxqQP9LvpIdj3FOjO-137">
          <mxGeometry y="100" width="59" height="25" as="geometry" />
        </mxCell>
        <mxCell id="nRilxqQP9LvpIdj3FOjO-147" value="..." style="shape=partialRectangle;html=1;whiteSpace=wrap;connectable=0;strokeColor=inherit;overflow=hidden;fillColor=none;top=0;left=0;bottom=0;right=0;pointerEvents=1;fontSize=12;" vertex="1" parent="nRilxqQP9LvpIdj3FOjO-146">
          <mxGeometry width="59" height="25" as="geometry">
            <mxRectangle width="59" height="25" as="alternateBounds" />
          </mxGeometry>
        </mxCell>
        <mxCell id="nRilxqQP9LvpIdj3FOjO-148" style="shape=tableRow;horizontal=0;startSize=0;swimlaneHead=0;swimlaneBody=0;strokeColor=inherit;top=0;left=0;bottom=0;right=0;collapsible=0;dropTarget=0;fillColor=none;points=[[0,0.5],[1,0.5]];portConstraint=eastwest;fontSize=16;" vertex="1" parent="nRilxqQP9LvpIdj3FOjO-137">
          <mxGeometry y="125" width="59" height="25" as="geometry" />
        </mxCell>
        <mxCell id="nRilxqQP9LvpIdj3FOjO-149" value="1198" style="shape=partialRectangle;html=1;whiteSpace=wrap;connectable=0;strokeColor=inherit;overflow=hidden;fillColor=none;top=0;left=0;bottom=0;right=0;pointerEvents=1;fontSize=12;" vertex="1" parent="nRilxqQP9LvpIdj3FOjO-148">
          <mxGeometry width="59" height="25" as="geometry">
            <mxRectangle width="59" height="25" as="alternateBounds" />
          </mxGeometry>
        </mxCell>
        <mxCell id="nRilxqQP9LvpIdj3FOjO-150" style="shape=tableRow;horizontal=0;startSize=0;swimlaneHead=0;swimlaneBody=0;strokeColor=inherit;top=0;left=0;bottom=0;right=0;collapsible=0;dropTarget=0;fillColor=none;points=[[0,0.5],[1,0.5]];portConstraint=eastwest;fontSize=16;" vertex="1" parent="nRilxqQP9LvpIdj3FOjO-137">
          <mxGeometry y="150" width="59" height="25" as="geometry" />
        </mxCell>
        <mxCell id="nRilxqQP9LvpIdj3FOjO-151" value="..." style="shape=partialRectangle;html=1;whiteSpace=wrap;connectable=0;strokeColor=inherit;overflow=hidden;fillColor=none;top=0;left=0;bottom=0;right=0;pointerEvents=1;fontSize=12;" vertex="1" parent="nRilxqQP9LvpIdj3FOjO-150">
          <mxGeometry width="59" height="25" as="geometry">
            <mxRectangle width="59" height="25" as="alternateBounds" />
          </mxGeometry>
        </mxCell>
        <mxCell id="nRilxqQP9LvpIdj3FOjO-163" value="" style="shape=table;startSize=0;container=1;collapsible=0;childLayout=tableLayout;fontSize=16;" vertex="1" parent="1">
          <mxGeometry x="1181" y="716" width="60" height="25" as="geometry" />
        </mxCell>
        <mxCell id="nRilxqQP9LvpIdj3FOjO-164" value="" style="shape=tableRow;horizontal=0;startSize=0;swimlaneHead=0;swimlaneBody=0;strokeColor=inherit;top=0;left=0;bottom=0;right=0;collapsible=0;dropTarget=0;fillColor=none;points=[[0,0.5],[1,0.5]];portConstraint=eastwest;fontSize=16;" vertex="1" parent="nRilxqQP9LvpIdj3FOjO-163">
          <mxGeometry width="60" height="25" as="geometry" />
        </mxCell>
        <mxCell id="nRilxqQP9LvpIdj3FOjO-165" value="100" style="shape=partialRectangle;html=1;whiteSpace=wrap;connectable=0;strokeColor=#d6b656;overflow=hidden;fillColor=#fff2cc;top=0;left=0;bottom=0;right=0;pointerEvents=1;fontSize=11;" vertex="1" parent="nRilxqQP9LvpIdj3FOjO-164">
          <mxGeometry width="30" height="25" as="geometry">
            <mxRectangle width="30" height="25" as="alternateBounds" />
          </mxGeometry>
        </mxCell>
        <mxCell id="nRilxqQP9LvpIdj3FOjO-166" value="1050" style="shape=partialRectangle;html=1;whiteSpace=wrap;connectable=0;strokeColor=#6c8ebf;overflow=hidden;fillColor=#dae8fc;top=0;left=0;bottom=0;right=0;pointerEvents=1;fontSize=11;" vertex="1" parent="nRilxqQP9LvpIdj3FOjO-164">
          <mxGeometry x="30" width="30" height="25" as="geometry">
            <mxRectangle width="30" height="25" as="alternateBounds" />
          </mxGeometry>
        </mxCell>
        <mxCell id="nRilxqQP9LvpIdj3FOjO-167" value="" style="shape=table;startSize=0;container=1;collapsible=0;childLayout=tableLayout;fontSize=16;" vertex="1" parent="1">
          <mxGeometry x="1181" y="765" width="60" height="25" as="geometry" />
        </mxCell>
        <mxCell id="nRilxqQP9LvpIdj3FOjO-168" value="" style="shape=tableRow;horizontal=0;startSize=0;swimlaneHead=0;swimlaneBody=0;strokeColor=inherit;top=0;left=0;bottom=0;right=0;collapsible=0;dropTarget=0;fillColor=none;points=[[0,0.5],[1,0.5]];portConstraint=eastwest;fontSize=16;" vertex="1" parent="nRilxqQP9LvpIdj3FOjO-167">
          <mxGeometry width="60" height="25" as="geometry" />
        </mxCell>
        <mxCell id="nRilxqQP9LvpIdj3FOjO-169" value="200" style="shape=partialRectangle;html=1;whiteSpace=wrap;connectable=0;strokeColor=#d6b656;overflow=hidden;fillColor=#fff2cc;top=0;left=0;bottom=0;right=0;pointerEvents=1;fontSize=11;" vertex="1" parent="nRilxqQP9LvpIdj3FOjO-168">
          <mxGeometry width="30" height="25" as="geometry">
            <mxRectangle width="30" height="25" as="alternateBounds" />
          </mxGeometry>
        </mxCell>
        <mxCell id="nRilxqQP9LvpIdj3FOjO-170" value="1002" style="shape=partialRectangle;html=1;whiteSpace=wrap;connectable=0;strokeColor=#6c8ebf;overflow=hidden;fillColor=#dae8fc;top=0;left=0;bottom=0;right=0;pointerEvents=1;fontSize=11;" vertex="1" parent="nRilxqQP9LvpIdj3FOjO-168">
          <mxGeometry x="30" width="30" height="25" as="geometry">
            <mxRectangle width="30" height="25" as="alternateBounds" />
          </mxGeometry>
        </mxCell>
        <mxCell id="nRilxqQP9LvpIdj3FOjO-171" value="" style="shape=table;startSize=0;container=1;collapsible=0;childLayout=tableLayout;fontSize=16;" vertex="1" parent="1">
          <mxGeometry x="1181" y="685" width="60" height="25" as="geometry" />
        </mxCell>
        <mxCell id="nRilxqQP9LvpIdj3FOjO-172" value="" style="shape=tableRow;horizontal=0;startSize=0;swimlaneHead=0;swimlaneBody=0;strokeColor=inherit;top=0;left=0;bottom=0;right=0;collapsible=0;dropTarget=0;fillColor=none;points=[[0,0.5],[1,0.5]];portConstraint=eastwest;fontSize=16;" vertex="1" parent="nRilxqQP9LvpIdj3FOjO-171">
          <mxGeometry width="60" height="25" as="geometry" />
        </mxCell>
        <mxCell id="nRilxqQP9LvpIdj3FOjO-173" value="300" style="shape=partialRectangle;html=1;whiteSpace=wrap;connectable=0;strokeColor=#d6b656;overflow=hidden;fillColor=#fff2cc;top=0;left=0;bottom=0;right=0;pointerEvents=1;fontSize=11;" vertex="1" parent="nRilxqQP9LvpIdj3FOjO-172">
          <mxGeometry width="30" height="25" as="geometry">
            <mxRectangle width="30" height="25" as="alternateBounds" />
          </mxGeometry>
        </mxCell>
        <mxCell id="nRilxqQP9LvpIdj3FOjO-174" value="..." style="shape=partialRectangle;html=1;whiteSpace=wrap;connectable=0;strokeColor=#6c8ebf;overflow=hidden;fillColor=#dae8fc;top=0;left=0;bottom=0;right=0;pointerEvents=1;fontSize=11;" vertex="1" parent="nRilxqQP9LvpIdj3FOjO-172">
          <mxGeometry x="30" width="30" height="25" as="geometry">
            <mxRectangle width="30" height="25" as="alternateBounds" />
          </mxGeometry>
        </mxCell>
        <mxCell id="nRilxqQP9LvpIdj3FOjO-175" value="" style="shape=table;startSize=0;container=1;collapsible=0;childLayout=tableLayout;fontSize=16;" vertex="1" parent="1">
          <mxGeometry x="1181" y="815" width="60" height="25" as="geometry" />
        </mxCell>
        <mxCell id="nRilxqQP9LvpIdj3FOjO-176" value="" style="shape=tableRow;horizontal=0;startSize=0;swimlaneHead=0;swimlaneBody=0;strokeColor=inherit;top=0;left=0;bottom=0;right=0;collapsible=0;dropTarget=0;fillColor=none;points=[[0,0.5],[1,0.5]];portConstraint=eastwest;fontSize=16;" vertex="1" parent="nRilxqQP9LvpIdj3FOjO-175">
          <mxGeometry width="60" height="25" as="geometry" />
        </mxCell>
        <mxCell id="nRilxqQP9LvpIdj3FOjO-177" value="1000" style="shape=partialRectangle;html=1;whiteSpace=wrap;connectable=0;strokeColor=#d6b656;overflow=hidden;fillColor=#fff2cc;top=0;left=0;bottom=0;right=0;pointerEvents=1;fontSize=11;" vertex="1" parent="nRilxqQP9LvpIdj3FOjO-176">
          <mxGeometry width="30" height="25" as="geometry">
            <mxRectangle width="30" height="25" as="alternateBounds" />
          </mxGeometry>
        </mxCell>
        <mxCell id="nRilxqQP9LvpIdj3FOjO-178" value="\0" style="shape=partialRectangle;html=1;whiteSpace=wrap;connectable=0;strokeColor=#6c8ebf;overflow=hidden;fillColor=#dae8fc;top=0;left=0;bottom=0;right=0;pointerEvents=1;fontSize=11;" vertex="1" parent="nRilxqQP9LvpIdj3FOjO-176">
          <mxGeometry x="30" width="30" height="25" as="geometry">
            <mxRectangle width="30" height="25" as="alternateBounds" />
          </mxGeometry>
        </mxCell>
        <mxCell id="nRilxqQP9LvpIdj3FOjO-179" value="&lt;b&gt;메모리 저장 위치&lt;/b&gt;" style="rounded=0;whiteSpace=wrap;html=1;fillColor=none;fontColor=#333333;strokeColor=none;" vertex="1" parent="1">
          <mxGeometry x="1130" y="880" width="120" height="30" as="geometry" />
        </mxCell>
        <mxCell id="nRilxqQP9LvpIdj3FOjO-181" style="edgeStyle=orthogonalEdgeStyle;rounded=0;orthogonalLoop=1;jettySize=auto;html=1;exitX=1;exitY=0.5;exitDx=0;exitDy=0;" edge="1" parent="1" source="nRilxqQP9LvpIdj3FOjO-180" target="nRilxqQP9LvpIdj3FOjO-140">
          <mxGeometry relative="1" as="geometry" />
        </mxCell>
        <mxCell id="nRilxqQP9LvpIdj3FOjO-180" value="&lt;font color=&quot;#ea6b66&quot;&gt;HEAD&lt;/font&gt;" style="rounded=0;whiteSpace=wrap;html=1;" vertex="1" parent="1">
          <mxGeometry x="1070" y="718.5" width="40" height="20" as="geometry" />
        </mxCell>
        <mxCell id="nRilxqQP9LvpIdj3FOjO-182" value="" style="rounded=0;whiteSpace=wrap;html=1;" vertex="1" parent="1">
          <mxGeometry x="700" y="960" width="640" height="590" as="geometry" />
        </mxCell>
        <mxCell id="nRilxqQP9LvpIdj3FOjO-183" value="" style="rounded=0;whiteSpace=wrap;html=1;" vertex="1" parent="1">
          <mxGeometry x="800" y="990" width="460" height="500" as="geometry" />
        </mxCell>
        <mxCell id="nRilxqQP9LvpIdj3FOjO-184" value="&lt;b&gt;단순 연결 리스트&lt;/b&gt;" style="rounded=0;whiteSpace=wrap;html=1;fillColor=#f5f5f5;fontColor=#333333;strokeColor=#666666;" vertex="1" parent="1">
          <mxGeometry x="970" y="990" width="120" height="20" as="geometry" />
        </mxCell>
        <mxCell id="nRilxqQP9LvpIdj3FOjO-185" value="" style="shape=table;startSize=0;container=1;collapsible=0;childLayout=tableLayout;fontSize=16;" vertex="1" parent="1">
          <mxGeometry x="881" y="1050" width="60" height="25" as="geometry" />
        </mxCell>
        <mxCell id="nRilxqQP9LvpIdj3FOjO-186" value="" style="shape=tableRow;horizontal=0;startSize=0;swimlaneHead=0;swimlaneBody=0;strokeColor=inherit;top=0;left=0;bottom=0;right=0;collapsible=0;dropTarget=0;fillColor=none;points=[[0,0.5],[1,0.5]];portConstraint=eastwest;fontSize=16;" vertex="1" parent="nRilxqQP9LvpIdj3FOjO-185">
          <mxGeometry width="60" height="25" as="geometry" />
        </mxCell>
        <mxCell id="nRilxqQP9LvpIdj3FOjO-187" value="val" style="shape=partialRectangle;html=1;whiteSpace=wrap;connectable=0;strokeColor=#d6b656;overflow=hidden;fillColor=#fff2cc;top=0;left=0;bottom=0;right=0;pointerEvents=1;fontSize=11;" vertex="1" parent="nRilxqQP9LvpIdj3FOjO-186">
          <mxGeometry width="30" height="25" as="geometry">
            <mxRectangle width="30" height="25" as="alternateBounds" />
          </mxGeometry>
        </mxCell>
        <mxCell id="nRilxqQP9LvpIdj3FOjO-188" value="ptr" style="shape=partialRectangle;html=1;whiteSpace=wrap;connectable=0;strokeColor=#6c8ebf;overflow=hidden;fillColor=#dae8fc;top=0;left=0;bottom=0;right=0;pointerEvents=1;fontSize=11;" vertex="1" parent="nRilxqQP9LvpIdj3FOjO-186">
          <mxGeometry x="30" width="30" height="25" as="geometry">
            <mxRectangle width="30" height="25" as="alternateBounds" />
          </mxGeometry>
        </mxCell>
        <mxCell id="nRilxqQP9LvpIdj3FOjO-190" style="edgeStyle=orthogonalEdgeStyle;rounded=0;orthogonalLoop=1;jettySize=auto;html=1;entryX=0;entryY=0.5;entryDx=0;entryDy=0;" edge="1" parent="1" source="nRilxqQP9LvpIdj3FOjO-189" target="nRilxqQP9LvpIdj3FOjO-185">
          <mxGeometry relative="1" as="geometry" />
        </mxCell>
        <mxCell id="nRilxqQP9LvpIdj3FOjO-189" value="&lt;font color=&quot;#ea6b66&quot;&gt;HEAD&lt;/font&gt;" style="rounded=0;whiteSpace=wrap;html=1;" vertex="1" parent="1">
          <mxGeometry x="820" y="1052.5" width="40" height="20" as="geometry" />
        </mxCell>
        <mxCell id="nRilxqQP9LvpIdj3FOjO-191" value="" style="shape=table;startSize=0;container=1;collapsible=0;childLayout=tableLayout;fontSize=16;" vertex="1" parent="1">
          <mxGeometry x="960" y="1050" width="60" height="25" as="geometry" />
        </mxCell>
        <mxCell id="nRilxqQP9LvpIdj3FOjO-192" value="" style="shape=tableRow;horizontal=0;startSize=0;swimlaneHead=0;swimlaneBody=0;strokeColor=inherit;top=0;left=0;bottom=0;right=0;collapsible=0;dropTarget=0;fillColor=none;points=[[0,0.5],[1,0.5]];portConstraint=eastwest;fontSize=16;" vertex="1" parent="nRilxqQP9LvpIdj3FOjO-191">
          <mxGeometry width="60" height="25" as="geometry" />
        </mxCell>
        <mxCell id="nRilxqQP9LvpIdj3FOjO-193" value="val" style="shape=partialRectangle;html=1;whiteSpace=wrap;connectable=0;strokeColor=#d6b656;overflow=hidden;fillColor=#fff2cc;top=0;left=0;bottom=0;right=0;pointerEvents=1;fontSize=11;" vertex="1" parent="nRilxqQP9LvpIdj3FOjO-192">
          <mxGeometry width="30" height="25" as="geometry">
            <mxRectangle width="30" height="25" as="alternateBounds" />
          </mxGeometry>
        </mxCell>
        <mxCell id="nRilxqQP9LvpIdj3FOjO-194" value="ptr" style="shape=partialRectangle;html=1;whiteSpace=wrap;connectable=0;strokeColor=#6c8ebf;overflow=hidden;fillColor=#dae8fc;top=0;left=0;bottom=0;right=0;pointerEvents=1;fontSize=11;" vertex="1" parent="nRilxqQP9LvpIdj3FOjO-192">
          <mxGeometry x="30" width="30" height="25" as="geometry">
            <mxRectangle width="30" height="25" as="alternateBounds" />
          </mxGeometry>
        </mxCell>
        <mxCell id="nRilxqQP9LvpIdj3FOjO-195" value="" style="shape=table;startSize=0;container=1;collapsible=0;childLayout=tableLayout;fontSize=16;" vertex="1" parent="1">
          <mxGeometry x="1040" y="1050" width="60" height="25" as="geometry" />
        </mxCell>
        <mxCell id="nRilxqQP9LvpIdj3FOjO-196" value="" style="shape=tableRow;horizontal=0;startSize=0;swimlaneHead=0;swimlaneBody=0;strokeColor=inherit;top=0;left=0;bottom=0;right=0;collapsible=0;dropTarget=0;fillColor=none;points=[[0,0.5],[1,0.5]];portConstraint=eastwest;fontSize=16;" vertex="1" parent="nRilxqQP9LvpIdj3FOjO-195">
          <mxGeometry width="60" height="25" as="geometry" />
        </mxCell>
        <mxCell id="nRilxqQP9LvpIdj3FOjO-197" value="val" style="shape=partialRectangle;html=1;whiteSpace=wrap;connectable=0;strokeColor=#d6b656;overflow=hidden;fillColor=#fff2cc;top=0;left=0;bottom=0;right=0;pointerEvents=1;fontSize=11;" vertex="1" parent="nRilxqQP9LvpIdj3FOjO-196">
          <mxGeometry width="30" height="25" as="geometry">
            <mxRectangle width="30" height="25" as="alternateBounds" />
          </mxGeometry>
        </mxCell>
        <mxCell id="nRilxqQP9LvpIdj3FOjO-198" value="ptr" style="shape=partialRectangle;html=1;whiteSpace=wrap;connectable=0;strokeColor=#6c8ebf;overflow=hidden;fillColor=#dae8fc;top=0;left=0;bottom=0;right=0;pointerEvents=1;fontSize=11;" vertex="1" parent="nRilxqQP9LvpIdj3FOjO-196">
          <mxGeometry x="30" width="30" height="25" as="geometry">
            <mxRectangle width="30" height="25" as="alternateBounds" />
          </mxGeometry>
        </mxCell>
        <mxCell id="nRilxqQP9LvpIdj3FOjO-199" value="" style="shape=table;startSize=0;container=1;collapsible=0;childLayout=tableLayout;fontSize=16;" vertex="1" parent="1">
          <mxGeometry x="1180" y="1050" width="60" height="25" as="geometry" />
        </mxCell>
        <mxCell id="nRilxqQP9LvpIdj3FOjO-200" value="" style="shape=tableRow;horizontal=0;startSize=0;swimlaneHead=0;swimlaneBody=0;strokeColor=inherit;top=0;left=0;bottom=0;right=0;collapsible=0;dropTarget=0;fillColor=none;points=[[0,0.5],[1,0.5]];portConstraint=eastwest;fontSize=16;" vertex="1" parent="nRilxqQP9LvpIdj3FOjO-199">
          <mxGeometry width="60" height="25" as="geometry" />
        </mxCell>
        <mxCell id="nRilxqQP9LvpIdj3FOjO-201" value="val" style="shape=partialRectangle;html=1;whiteSpace=wrap;connectable=0;strokeColor=#d6b656;overflow=hidden;fillColor=#fff2cc;top=0;left=0;bottom=0;right=0;pointerEvents=1;fontSize=11;" vertex="1" parent="nRilxqQP9LvpIdj3FOjO-200">
          <mxGeometry width="30" height="25" as="geometry">
            <mxRectangle width="30" height="25" as="alternateBounds" />
          </mxGeometry>
        </mxCell>
        <mxCell id="nRilxqQP9LvpIdj3FOjO-202" value="&lt;font color=&quot;#ea6b66&quot;&gt;\0&lt;/font&gt;" style="shape=partialRectangle;html=1;whiteSpace=wrap;connectable=0;strokeColor=#6c8ebf;overflow=hidden;fillColor=#dae8fc;top=0;left=0;bottom=0;right=0;pointerEvents=1;fontSize=11;" vertex="1" parent="nRilxqQP9LvpIdj3FOjO-200">
          <mxGeometry x="30" width="30" height="25" as="geometry">
            <mxRectangle width="30" height="25" as="alternateBounds" />
          </mxGeometry>
        </mxCell>
        <mxCell id="nRilxqQP9LvpIdj3FOjO-203" style="edgeStyle=orthogonalEdgeStyle;rounded=0;orthogonalLoop=1;jettySize=auto;html=1;" edge="1" parent="1" source="nRilxqQP9LvpIdj3FOjO-186" target="nRilxqQP9LvpIdj3FOjO-192">
          <mxGeometry relative="1" as="geometry" />
        </mxCell>
        <mxCell id="nRilxqQP9LvpIdj3FOjO-204" style="edgeStyle=orthogonalEdgeStyle;rounded=0;orthogonalLoop=1;jettySize=auto;html=1;entryX=0;entryY=0.5;entryDx=0;entryDy=0;" edge="1" parent="1" source="nRilxqQP9LvpIdj3FOjO-192" target="nRilxqQP9LvpIdj3FOjO-195">
          <mxGeometry relative="1" as="geometry" />
        </mxCell>
        <mxCell id="nRilxqQP9LvpIdj3FOjO-207" style="edgeStyle=orthogonalEdgeStyle;rounded=0;orthogonalLoop=1;jettySize=auto;html=1;entryX=0;entryY=0.5;entryDx=0;entryDy=0;" edge="1" parent="1" source="nRilxqQP9LvpIdj3FOjO-205" target="nRilxqQP9LvpIdj3FOjO-199">
          <mxGeometry relative="1" as="geometry" />
        </mxCell>
        <mxCell id="nRilxqQP9LvpIdj3FOjO-205" value="&lt;font style=&quot;font-size: 18px;&quot;&gt;...&lt;/font&gt;" style="whiteSpace=wrap;html=1;aspect=fixed;dashed=1;strokeColor=none;" vertex="1" parent="1">
          <mxGeometry x="1126" y="1047.5" width="30" height="30" as="geometry" />
        </mxCell>
        <mxCell id="nRilxqQP9LvpIdj3FOjO-206" style="edgeStyle=orthogonalEdgeStyle;rounded=0;orthogonalLoop=1;jettySize=auto;html=1;exitX=1;exitY=0.5;exitDx=0;exitDy=0;entryX=0;entryY=0.5;entryDx=0;entryDy=0;" edge="1" parent="1" source="nRilxqQP9LvpIdj3FOjO-196" target="nRilxqQP9LvpIdj3FOjO-205">
          <mxGeometry relative="1" as="geometry" />
        </mxCell>
        <mxCell id="nRilxqQP9LvpIdj3FOjO-208" value="" style="endArrow=none;html=1;rounded=0;exitX=0;exitY=0.5;exitDx=0;exitDy=0;entryX=1;entryY=0.5;entryDx=0;entryDy=0;" edge="1" parent="1">
          <mxGeometry width="50" height="50" relative="1" as="geometry">
            <mxPoint x="800" y="1110" as="sourcePoint" />
            <mxPoint x="1260" y="1110" as="targetPoint" />
          </mxGeometry>
        </mxCell>
        <mxCell id="nRilxqQP9LvpIdj3FOjO-209" value="&lt;b&gt;이중 연결 리스트&lt;/b&gt;" style="rounded=0;whiteSpace=wrap;html=1;fillColor=#f5f5f5;fontColor=#333333;strokeColor=#666666;" vertex="1" parent="1">
          <mxGeometry x="970" y="1110" width="120" height="20" as="geometry" />
        </mxCell>
        <mxCell id="nRilxqQP9LvpIdj3FOjO-210" value="" style="shape=table;startSize=0;container=1;collapsible=0;childLayout=tableLayout;fontSize=16;" vertex="1" parent="1">
          <mxGeometry x="881" y="1162.5" width="59" height="25" as="geometry" />
        </mxCell>
        <mxCell id="nRilxqQP9LvpIdj3FOjO-211" value="" style="shape=tableRow;horizontal=0;startSize=0;swimlaneHead=0;swimlaneBody=0;strokeColor=inherit;top=0;left=0;bottom=0;right=0;collapsible=0;dropTarget=0;fillColor=none;points=[[0,0.5],[1,0.5]];portConstraint=eastwest;fontSize=16;" vertex="1" parent="nRilxqQP9LvpIdj3FOjO-210">
          <mxGeometry width="59" height="25" as="geometry" />
        </mxCell>
        <mxCell id="nRilxqQP9LvpIdj3FOjO-212" value="&lt;font color=&quot;#ea6b66&quot;&gt;\0&lt;/font&gt;" style="shape=partialRectangle;html=1;whiteSpace=wrap;connectable=0;strokeColor=#6c8ebf;overflow=hidden;fillColor=#dae8fc;top=0;left=0;bottom=0;right=0;pointerEvents=1;fontSize=11;" vertex="1" parent="nRilxqQP9LvpIdj3FOjO-211">
          <mxGeometry width="19" height="25" as="geometry">
            <mxRectangle width="19" height="25" as="alternateBounds" />
          </mxGeometry>
        </mxCell>
        <mxCell id="nRilxqQP9LvpIdj3FOjO-213" value="val" style="shape=partialRectangle;html=1;whiteSpace=wrap;connectable=0;strokeColor=#d6b656;overflow=hidden;fillColor=#fff2cc;top=0;left=0;bottom=0;right=0;pointerEvents=1;fontSize=11;" vertex="1" parent="nRilxqQP9LvpIdj3FOjO-211">
          <mxGeometry x="19" width="21" height="25" as="geometry">
            <mxRectangle width="21" height="25" as="alternateBounds" />
          </mxGeometry>
        </mxCell>
        <mxCell id="nRilxqQP9LvpIdj3FOjO-293" value="ptr" style="shape=partialRectangle;html=1;whiteSpace=wrap;connectable=0;strokeColor=#6c8ebf;overflow=hidden;fillColor=#dae8fc;top=0;left=0;bottom=0;right=0;pointerEvents=1;fontSize=11;" vertex="1" parent="nRilxqQP9LvpIdj3FOjO-211">
          <mxGeometry x="40" width="19" height="25" as="geometry">
            <mxRectangle width="19" height="25" as="alternateBounds" />
          </mxGeometry>
        </mxCell>
        <mxCell id="nRilxqQP9LvpIdj3FOjO-214" style="edgeStyle=orthogonalEdgeStyle;rounded=0;orthogonalLoop=1;jettySize=auto;html=1;entryX=0;entryY=0.5;entryDx=0;entryDy=0;" edge="1" parent="1">
          <mxGeometry relative="1" as="geometry">
            <mxPoint x="860" y="1175.9999999999998" as="sourcePoint" />
            <mxPoint x="881" y="1176" as="targetPoint" />
          </mxGeometry>
        </mxCell>
        <mxCell id="nRilxqQP9LvpIdj3FOjO-215" value="&lt;font color=&quot;#ea6b66&quot;&gt;HEAD&lt;/font&gt;" style="rounded=0;whiteSpace=wrap;html=1;" vertex="1" parent="1">
          <mxGeometry x="820" y="1165" width="40" height="20" as="geometry" />
        </mxCell>
        <mxCell id="nRilxqQP9LvpIdj3FOjO-228" style="edgeStyle=orthogonalEdgeStyle;rounded=0;orthogonalLoop=1;jettySize=auto;html=1;" edge="1" parent="1">
          <mxGeometry relative="1" as="geometry">
            <mxPoint x="941" y="1169.9999999999998" as="sourcePoint" />
            <mxPoint x="960" y="1169.9999999999998" as="targetPoint" />
          </mxGeometry>
        </mxCell>
        <mxCell id="nRilxqQP9LvpIdj3FOjO-229" style="edgeStyle=orthogonalEdgeStyle;rounded=0;orthogonalLoop=1;jettySize=auto;html=1;entryX=0;entryY=0.5;entryDx=0;entryDy=0;" edge="1" parent="1">
          <mxGeometry relative="1" as="geometry">
            <mxPoint x="1020" y="1168.9999999999998" as="sourcePoint" />
            <mxPoint x="1040" y="1169" as="targetPoint" />
          </mxGeometry>
        </mxCell>
        <mxCell id="nRilxqQP9LvpIdj3FOjO-230" style="edgeStyle=orthogonalEdgeStyle;rounded=0;orthogonalLoop=1;jettySize=auto;html=1;entryX=0;entryY=0.5;entryDx=0;entryDy=0;" edge="1" parent="1">
          <mxGeometry relative="1" as="geometry">
            <mxPoint x="1156" y="1170" as="sourcePoint" />
            <mxPoint x="1180" y="1170" as="targetPoint" />
          </mxGeometry>
        </mxCell>
        <mxCell id="nRilxqQP9LvpIdj3FOjO-237" style="edgeStyle=orthogonalEdgeStyle;rounded=0;orthogonalLoop=1;jettySize=auto;html=1;entryX=1;entryY=0.5;entryDx=0;entryDy=0;" edge="1" parent="1">
          <mxGeometry relative="1" as="geometry">
            <mxPoint x="1126" y="1180" as="sourcePoint" />
            <mxPoint x="1100" y="1180" as="targetPoint" />
          </mxGeometry>
        </mxCell>
        <mxCell id="nRilxqQP9LvpIdj3FOjO-231" value="&lt;font style=&quot;font-size: 18px;&quot;&gt;...&lt;/font&gt;" style="whiteSpace=wrap;html=1;aspect=fixed;dashed=1;strokeColor=none;" vertex="1" parent="1">
          <mxGeometry x="1126" y="1160" width="30" height="30" as="geometry" />
        </mxCell>
        <mxCell id="nRilxqQP9LvpIdj3FOjO-232" style="edgeStyle=orthogonalEdgeStyle;rounded=0;orthogonalLoop=1;jettySize=auto;html=1;exitX=1;exitY=0.5;exitDx=0;exitDy=0;entryX=0;entryY=0.5;entryDx=0;entryDy=0;" edge="1" parent="1">
          <mxGeometry relative="1" as="geometry">
            <mxPoint x="1100" y="1170" as="sourcePoint" />
            <mxPoint x="1126.0000000000005" y="1170" as="targetPoint" />
          </mxGeometry>
        </mxCell>
        <mxCell id="nRilxqQP9LvpIdj3FOjO-235" style="edgeStyle=orthogonalEdgeStyle;rounded=0;orthogonalLoop=1;jettySize=auto;html=1;entryX=1;entryY=0.5;entryDx=0;entryDy=0;" edge="1" parent="1">
          <mxGeometry relative="1" as="geometry">
            <mxPoint x="960" y="1180" as="sourcePoint" />
            <mxPoint x="941" y="1180" as="targetPoint" />
          </mxGeometry>
        </mxCell>
        <mxCell id="nRilxqQP9LvpIdj3FOjO-236" style="edgeStyle=orthogonalEdgeStyle;rounded=0;orthogonalLoop=1;jettySize=auto;html=1;entryX=1;entryY=0.5;entryDx=0;entryDy=0;" edge="1" parent="1">
          <mxGeometry relative="1" as="geometry">
            <mxPoint x="1040" y="1181" as="sourcePoint" />
            <mxPoint x="1020" y="1181" as="targetPoint" />
          </mxGeometry>
        </mxCell>
        <mxCell id="nRilxqQP9LvpIdj3FOjO-238" style="edgeStyle=orthogonalEdgeStyle;rounded=0;orthogonalLoop=1;jettySize=auto;html=1;entryX=1;entryY=0.5;entryDx=0;entryDy=0;" edge="1" parent="1">
          <mxGeometry relative="1" as="geometry">
            <mxPoint x="1180" y="1180" as="sourcePoint" />
            <mxPoint x="1156" y="1180" as="targetPoint" />
          </mxGeometry>
        </mxCell>
        <mxCell id="nRilxqQP9LvpIdj3FOjO-239" value="" style="endArrow=none;html=1;rounded=0;exitX=0;exitY=0.5;exitDx=0;exitDy=0;entryX=1;entryY=0.5;entryDx=0;entryDy=0;" edge="1" parent="1">
          <mxGeometry width="50" height="50" relative="1" as="geometry">
            <mxPoint x="800" y="1220" as="sourcePoint" />
            <mxPoint x="1260" y="1220" as="targetPoint" />
          </mxGeometry>
        </mxCell>
        <mxCell id="nRilxqQP9LvpIdj3FOjO-240" value="&lt;b&gt;원형 연결 리스트&lt;/b&gt;" style="rounded=0;whiteSpace=wrap;html=1;fillColor=#f5f5f5;fontColor=#333333;strokeColor=#666666;" vertex="1" parent="1">
          <mxGeometry x="970" y="1220" width="120" height="20" as="geometry" />
        </mxCell>
        <mxCell id="nRilxqQP9LvpIdj3FOjO-269" value="" style="shape=table;startSize=0;container=1;collapsible=0;childLayout=tableLayout;fontSize=16;" vertex="1" parent="1">
          <mxGeometry x="877" y="1272.5" width="60" height="25" as="geometry" />
        </mxCell>
        <mxCell id="nRilxqQP9LvpIdj3FOjO-270" value="" style="shape=tableRow;horizontal=0;startSize=0;swimlaneHead=0;swimlaneBody=0;strokeColor=inherit;top=0;left=0;bottom=0;right=0;collapsible=0;dropTarget=0;fillColor=none;points=[[0,0.5],[1,0.5]];portConstraint=eastwest;fontSize=16;" vertex="1" parent="nRilxqQP9LvpIdj3FOjO-269">
          <mxGeometry width="60" height="25" as="geometry" />
        </mxCell>
        <mxCell id="nRilxqQP9LvpIdj3FOjO-271" value="val" style="shape=partialRectangle;html=1;whiteSpace=wrap;connectable=0;strokeColor=#d6b656;overflow=hidden;fillColor=#fff2cc;top=0;left=0;bottom=0;right=0;pointerEvents=1;fontSize=11;" vertex="1" parent="nRilxqQP9LvpIdj3FOjO-270">
          <mxGeometry width="30" height="25" as="geometry">
            <mxRectangle width="30" height="25" as="alternateBounds" />
          </mxGeometry>
        </mxCell>
        <mxCell id="nRilxqQP9LvpIdj3FOjO-272" value="ptr" style="shape=partialRectangle;html=1;whiteSpace=wrap;connectable=0;strokeColor=#6c8ebf;overflow=hidden;fillColor=#dae8fc;top=0;left=0;bottom=0;right=0;pointerEvents=1;fontSize=11;" vertex="1" parent="nRilxqQP9LvpIdj3FOjO-270">
          <mxGeometry x="30" width="30" height="25" as="geometry">
            <mxRectangle width="30" height="25" as="alternateBounds" />
          </mxGeometry>
        </mxCell>
        <mxCell id="nRilxqQP9LvpIdj3FOjO-273" style="edgeStyle=orthogonalEdgeStyle;rounded=0;orthogonalLoop=1;jettySize=auto;html=1;entryX=0;entryY=0.5;entryDx=0;entryDy=0;" edge="1" parent="1">
          <mxGeometry relative="1" as="geometry">
            <mxPoint x="856" y="1280" as="sourcePoint" />
            <mxPoint x="877" y="1280" as="targetPoint" />
          </mxGeometry>
        </mxCell>
        <mxCell id="nRilxqQP9LvpIdj3FOjO-274" value="&lt;font color=&quot;#ea6b66&quot;&gt;HEAD&lt;/font&gt;" style="rounded=0;whiteSpace=wrap;html=1;" vertex="1" parent="1">
          <mxGeometry x="816" y="1275" width="40" height="20" as="geometry" />
        </mxCell>
        <mxCell id="nRilxqQP9LvpIdj3FOjO-275" value="" style="shape=table;startSize=0;container=1;collapsible=0;childLayout=tableLayout;fontSize=16;" vertex="1" parent="1">
          <mxGeometry x="956" y="1272.5" width="60" height="25" as="geometry" />
        </mxCell>
        <mxCell id="nRilxqQP9LvpIdj3FOjO-276" value="" style="shape=tableRow;horizontal=0;startSize=0;swimlaneHead=0;swimlaneBody=0;strokeColor=inherit;top=0;left=0;bottom=0;right=0;collapsible=0;dropTarget=0;fillColor=none;points=[[0,0.5],[1,0.5]];portConstraint=eastwest;fontSize=16;" vertex="1" parent="nRilxqQP9LvpIdj3FOjO-275">
          <mxGeometry width="60" height="25" as="geometry" />
        </mxCell>
        <mxCell id="nRilxqQP9LvpIdj3FOjO-277" value="val" style="shape=partialRectangle;html=1;whiteSpace=wrap;connectable=0;strokeColor=#d6b656;overflow=hidden;fillColor=#fff2cc;top=0;left=0;bottom=0;right=0;pointerEvents=1;fontSize=11;" vertex="1" parent="nRilxqQP9LvpIdj3FOjO-276">
          <mxGeometry width="30" height="25" as="geometry">
            <mxRectangle width="30" height="25" as="alternateBounds" />
          </mxGeometry>
        </mxCell>
        <mxCell id="nRilxqQP9LvpIdj3FOjO-278" value="ptr" style="shape=partialRectangle;html=1;whiteSpace=wrap;connectable=0;strokeColor=#6c8ebf;overflow=hidden;fillColor=#dae8fc;top=0;left=0;bottom=0;right=0;pointerEvents=1;fontSize=11;" vertex="1" parent="nRilxqQP9LvpIdj3FOjO-276">
          <mxGeometry x="30" width="30" height="25" as="geometry">
            <mxRectangle width="30" height="25" as="alternateBounds" />
          </mxGeometry>
        </mxCell>
        <mxCell id="nRilxqQP9LvpIdj3FOjO-279" value="" style="shape=table;startSize=0;container=1;collapsible=0;childLayout=tableLayout;fontSize=16;" vertex="1" parent="1">
          <mxGeometry x="1036" y="1272.5" width="60" height="25" as="geometry" />
        </mxCell>
        <mxCell id="nRilxqQP9LvpIdj3FOjO-280" value="" style="shape=tableRow;horizontal=0;startSize=0;swimlaneHead=0;swimlaneBody=0;strokeColor=inherit;top=0;left=0;bottom=0;right=0;collapsible=0;dropTarget=0;fillColor=none;points=[[0,0.5],[1,0.5]];portConstraint=eastwest;fontSize=16;" vertex="1" parent="nRilxqQP9LvpIdj3FOjO-279">
          <mxGeometry width="60" height="25" as="geometry" />
        </mxCell>
        <mxCell id="nRilxqQP9LvpIdj3FOjO-281" value="val" style="shape=partialRectangle;html=1;whiteSpace=wrap;connectable=0;strokeColor=#d6b656;overflow=hidden;fillColor=#fff2cc;top=0;left=0;bottom=0;right=0;pointerEvents=1;fontSize=11;" vertex="1" parent="nRilxqQP9LvpIdj3FOjO-280">
          <mxGeometry width="30" height="25" as="geometry">
            <mxRectangle width="30" height="25" as="alternateBounds" />
          </mxGeometry>
        </mxCell>
        <mxCell id="nRilxqQP9LvpIdj3FOjO-282" value="ptr" style="shape=partialRectangle;html=1;whiteSpace=wrap;connectable=0;strokeColor=#6c8ebf;overflow=hidden;fillColor=#dae8fc;top=0;left=0;bottom=0;right=0;pointerEvents=1;fontSize=11;" vertex="1" parent="nRilxqQP9LvpIdj3FOjO-280">
          <mxGeometry x="30" width="30" height="25" as="geometry">
            <mxRectangle width="30" height="25" as="alternateBounds" />
          </mxGeometry>
        </mxCell>
        <mxCell id="nRilxqQP9LvpIdj3FOjO-292" style="edgeStyle=orthogonalEdgeStyle;rounded=0;orthogonalLoop=1;jettySize=auto;html=1;exitX=1;exitY=0.5;exitDx=0;exitDy=0;" edge="1" parent="1">
          <mxGeometry relative="1" as="geometry">
            <mxPoint x="875" y="1289.857142857143" as="targetPoint" />
            <mxPoint x="1236" y="1290" as="sourcePoint" />
            <Array as="points">
              <mxPoint x="1245" y="1290" />
              <mxPoint x="1245" y="1322" />
              <mxPoint x="860" y="1322" />
              <mxPoint x="860" y="1290" />
            </Array>
          </mxGeometry>
        </mxCell>
        <mxCell id="nRilxqQP9LvpIdj3FOjO-283" value="" style="shape=table;startSize=0;container=1;collapsible=0;childLayout=tableLayout;fontSize=16;" vertex="1" parent="1">
          <mxGeometry x="1176" y="1272.5" width="60" height="25" as="geometry" />
        </mxCell>
        <mxCell id="nRilxqQP9LvpIdj3FOjO-284" value="" style="shape=tableRow;horizontal=0;startSize=0;swimlaneHead=0;swimlaneBody=0;strokeColor=inherit;top=0;left=0;bottom=0;right=0;collapsible=0;dropTarget=0;fillColor=none;points=[[0,0.5],[1,0.5]];portConstraint=eastwest;fontSize=16;" vertex="1" parent="nRilxqQP9LvpIdj3FOjO-283">
          <mxGeometry width="60" height="25" as="geometry" />
        </mxCell>
        <mxCell id="nRilxqQP9LvpIdj3FOjO-285" value="val" style="shape=partialRectangle;html=1;whiteSpace=wrap;connectable=0;strokeColor=#d6b656;overflow=hidden;fillColor=#fff2cc;top=0;left=0;bottom=0;right=0;pointerEvents=1;fontSize=11;" vertex="1" parent="nRilxqQP9LvpIdj3FOjO-284">
          <mxGeometry width="30" height="25" as="geometry">
            <mxRectangle width="30" height="25" as="alternateBounds" />
          </mxGeometry>
        </mxCell>
        <mxCell id="nRilxqQP9LvpIdj3FOjO-286" value="ptr" style="shape=partialRectangle;html=1;whiteSpace=wrap;connectable=0;strokeColor=#6c8ebf;overflow=hidden;fillColor=#dae8fc;top=0;left=0;bottom=0;right=0;pointerEvents=1;fontSize=11;" vertex="1" parent="nRilxqQP9LvpIdj3FOjO-284">
          <mxGeometry x="30" width="30" height="25" as="geometry">
            <mxRectangle width="30" height="25" as="alternateBounds" />
          </mxGeometry>
        </mxCell>
        <mxCell id="nRilxqQP9LvpIdj3FOjO-287" style="edgeStyle=orthogonalEdgeStyle;rounded=0;orthogonalLoop=1;jettySize=auto;html=1;" edge="1" parent="1" source="nRilxqQP9LvpIdj3FOjO-270" target="nRilxqQP9LvpIdj3FOjO-276">
          <mxGeometry relative="1" as="geometry" />
        </mxCell>
        <mxCell id="nRilxqQP9LvpIdj3FOjO-288" style="edgeStyle=orthogonalEdgeStyle;rounded=0;orthogonalLoop=1;jettySize=auto;html=1;entryX=0;entryY=0.5;entryDx=0;entryDy=0;" edge="1" parent="1" source="nRilxqQP9LvpIdj3FOjO-276" target="nRilxqQP9LvpIdj3FOjO-279">
          <mxGeometry relative="1" as="geometry" />
        </mxCell>
        <mxCell id="nRilxqQP9LvpIdj3FOjO-289" style="edgeStyle=orthogonalEdgeStyle;rounded=0;orthogonalLoop=1;jettySize=auto;html=1;entryX=0;entryY=0.5;entryDx=0;entryDy=0;" edge="1" parent="1" source="nRilxqQP9LvpIdj3FOjO-290" target="nRilxqQP9LvpIdj3FOjO-283">
          <mxGeometry relative="1" as="geometry" />
        </mxCell>
        <mxCell id="nRilxqQP9LvpIdj3FOjO-290" value="&lt;font style=&quot;font-size: 18px;&quot;&gt;...&lt;/font&gt;" style="whiteSpace=wrap;html=1;aspect=fixed;dashed=1;strokeColor=none;" vertex="1" parent="1">
          <mxGeometry x="1122" y="1270" width="30" height="30" as="geometry" />
        </mxCell>
        <mxCell id="nRilxqQP9LvpIdj3FOjO-291" style="edgeStyle=orthogonalEdgeStyle;rounded=0;orthogonalLoop=1;jettySize=auto;html=1;exitX=1;exitY=0.5;exitDx=0;exitDy=0;entryX=0;entryY=0.5;entryDx=0;entryDy=0;" edge="1" parent="1" source="nRilxqQP9LvpIdj3FOjO-280" target="nRilxqQP9LvpIdj3FOjO-290">
          <mxGeometry relative="1" as="geometry" />
        </mxCell>
        <mxCell id="nRilxqQP9LvpIdj3FOjO-294" value="" style="shape=table;startSize=0;container=1;collapsible=0;childLayout=tableLayout;fontSize=16;" vertex="1" parent="1">
          <mxGeometry x="960" y="1162.5" width="59" height="25" as="geometry" />
        </mxCell>
        <mxCell id="nRilxqQP9LvpIdj3FOjO-295" value="" style="shape=tableRow;horizontal=0;startSize=0;swimlaneHead=0;swimlaneBody=0;strokeColor=inherit;top=0;left=0;bottom=0;right=0;collapsible=0;dropTarget=0;fillColor=none;points=[[0,0.5],[1,0.5]];portConstraint=eastwest;fontSize=16;" vertex="1" parent="nRilxqQP9LvpIdj3FOjO-294">
          <mxGeometry width="59" height="25" as="geometry" />
        </mxCell>
        <mxCell id="nRilxqQP9LvpIdj3FOjO-296" value="ptr" style="shape=partialRectangle;html=1;whiteSpace=wrap;connectable=0;strokeColor=#6c8ebf;overflow=hidden;fillColor=#dae8fc;top=0;left=0;bottom=0;right=0;pointerEvents=1;fontSize=11;" vertex="1" parent="nRilxqQP9LvpIdj3FOjO-295">
          <mxGeometry width="19" height="25" as="geometry">
            <mxRectangle width="19" height="25" as="alternateBounds" />
          </mxGeometry>
        </mxCell>
        <mxCell id="nRilxqQP9LvpIdj3FOjO-297" value="val" style="shape=partialRectangle;html=1;whiteSpace=wrap;connectable=0;strokeColor=#d6b656;overflow=hidden;fillColor=#fff2cc;top=0;left=0;bottom=0;right=0;pointerEvents=1;fontSize=11;" vertex="1" parent="nRilxqQP9LvpIdj3FOjO-295">
          <mxGeometry x="19" width="21" height="25" as="geometry">
            <mxRectangle width="21" height="25" as="alternateBounds" />
          </mxGeometry>
        </mxCell>
        <mxCell id="nRilxqQP9LvpIdj3FOjO-298" value="ptr" style="shape=partialRectangle;html=1;whiteSpace=wrap;connectable=0;strokeColor=#6c8ebf;overflow=hidden;fillColor=#dae8fc;top=0;left=0;bottom=0;right=0;pointerEvents=1;fontSize=11;" vertex="1" parent="nRilxqQP9LvpIdj3FOjO-295">
          <mxGeometry x="40" width="19" height="25" as="geometry">
            <mxRectangle width="19" height="25" as="alternateBounds" />
          </mxGeometry>
        </mxCell>
        <mxCell id="nRilxqQP9LvpIdj3FOjO-301" value="" style="shape=table;startSize=0;container=1;collapsible=0;childLayout=tableLayout;fontSize=16;" vertex="1" parent="1">
          <mxGeometry x="1040" y="1162.5" width="59" height="25" as="geometry" />
        </mxCell>
        <mxCell id="nRilxqQP9LvpIdj3FOjO-302" value="" style="shape=tableRow;horizontal=0;startSize=0;swimlaneHead=0;swimlaneBody=0;strokeColor=inherit;top=0;left=0;bottom=0;right=0;collapsible=0;dropTarget=0;fillColor=none;points=[[0,0.5],[1,0.5]];portConstraint=eastwest;fontSize=16;" vertex="1" parent="nRilxqQP9LvpIdj3FOjO-301">
          <mxGeometry width="59" height="25" as="geometry" />
        </mxCell>
        <mxCell id="nRilxqQP9LvpIdj3FOjO-303" value="ptr" style="shape=partialRectangle;html=1;whiteSpace=wrap;connectable=0;strokeColor=#6c8ebf;overflow=hidden;fillColor=#dae8fc;top=0;left=0;bottom=0;right=0;pointerEvents=1;fontSize=11;" vertex="1" parent="nRilxqQP9LvpIdj3FOjO-302">
          <mxGeometry width="19" height="25" as="geometry">
            <mxRectangle width="19" height="25" as="alternateBounds" />
          </mxGeometry>
        </mxCell>
        <mxCell id="nRilxqQP9LvpIdj3FOjO-304" value="val" style="shape=partialRectangle;html=1;whiteSpace=wrap;connectable=0;strokeColor=#d6b656;overflow=hidden;fillColor=#fff2cc;top=0;left=0;bottom=0;right=0;pointerEvents=1;fontSize=11;" vertex="1" parent="nRilxqQP9LvpIdj3FOjO-302">
          <mxGeometry x="19" width="21" height="25" as="geometry">
            <mxRectangle width="21" height="25" as="alternateBounds" />
          </mxGeometry>
        </mxCell>
        <mxCell id="nRilxqQP9LvpIdj3FOjO-305" value="ptr" style="shape=partialRectangle;html=1;whiteSpace=wrap;connectable=0;strokeColor=#6c8ebf;overflow=hidden;fillColor=#dae8fc;top=0;left=0;bottom=0;right=0;pointerEvents=1;fontSize=11;" vertex="1" parent="nRilxqQP9LvpIdj3FOjO-302">
          <mxGeometry x="40" width="19" height="25" as="geometry">
            <mxRectangle width="19" height="25" as="alternateBounds" />
          </mxGeometry>
        </mxCell>
        <mxCell id="nRilxqQP9LvpIdj3FOjO-307" value="" style="shape=table;startSize=0;container=1;collapsible=0;childLayout=tableLayout;fontSize=16;" vertex="1" parent="1">
          <mxGeometry x="1180" y="1162" width="59" height="25" as="geometry" />
        </mxCell>
        <mxCell id="nRilxqQP9LvpIdj3FOjO-308" value="" style="shape=tableRow;horizontal=0;startSize=0;swimlaneHead=0;swimlaneBody=0;strokeColor=inherit;top=0;left=0;bottom=0;right=0;collapsible=0;dropTarget=0;fillColor=none;points=[[0,0.5],[1,0.5]];portConstraint=eastwest;fontSize=16;" vertex="1" parent="nRilxqQP9LvpIdj3FOjO-307">
          <mxGeometry width="59" height="25" as="geometry" />
        </mxCell>
        <mxCell id="nRilxqQP9LvpIdj3FOjO-309" value="ptr" style="shape=partialRectangle;html=1;whiteSpace=wrap;connectable=0;strokeColor=#6c8ebf;overflow=hidden;fillColor=#dae8fc;top=0;left=0;bottom=0;right=0;pointerEvents=1;fontSize=11;" vertex="1" parent="nRilxqQP9LvpIdj3FOjO-308">
          <mxGeometry width="19" height="25" as="geometry">
            <mxRectangle width="19" height="25" as="alternateBounds" />
          </mxGeometry>
        </mxCell>
        <mxCell id="nRilxqQP9LvpIdj3FOjO-310" value="val" style="shape=partialRectangle;html=1;whiteSpace=wrap;connectable=0;strokeColor=#d6b656;overflow=hidden;fillColor=#fff2cc;top=0;left=0;bottom=0;right=0;pointerEvents=1;fontSize=11;" vertex="1" parent="nRilxqQP9LvpIdj3FOjO-308">
          <mxGeometry x="19" width="21" height="25" as="geometry">
            <mxRectangle width="21" height="25" as="alternateBounds" />
          </mxGeometry>
        </mxCell>
        <mxCell id="nRilxqQP9LvpIdj3FOjO-311" value="&lt;font color=&quot;#ea6b66&quot;&gt;\0&lt;/font&gt;" style="shape=partialRectangle;html=1;whiteSpace=wrap;connectable=0;strokeColor=#6c8ebf;overflow=hidden;fillColor=#dae8fc;top=0;left=0;bottom=0;right=0;pointerEvents=1;fontSize=11;" vertex="1" parent="nRilxqQP9LvpIdj3FOjO-308">
          <mxGeometry x="40" width="19" height="25" as="geometry">
            <mxRectangle width="19" height="25" as="alternateBounds" />
          </mxGeometry>
        </mxCell>
        <mxCell id="nRilxqQP9LvpIdj3FOjO-312" value="" style="endArrow=none;html=1;rounded=0;exitX=0;exitY=0.5;exitDx=0;exitDy=0;entryX=1;entryY=0.5;entryDx=0;entryDy=0;" edge="1" parent="1">
          <mxGeometry width="50" height="50" relative="1" as="geometry">
            <mxPoint x="800" y="1350" as="sourcePoint" />
            <mxPoint x="1260" y="1350" as="targetPoint" />
          </mxGeometry>
        </mxCell>
        <mxCell id="nRilxqQP9LvpIdj3FOjO-313" value="&lt;b&gt;이중 원형 연결 리스트&lt;/b&gt;" style="rounded=0;whiteSpace=wrap;html=1;fillColor=#f5f5f5;fontColor=#333333;strokeColor=#666666;" vertex="1" parent="1">
          <mxGeometry x="970" y="1350" width="120" height="20" as="geometry" />
        </mxCell>
        <mxCell id="nRilxqQP9LvpIdj3FOjO-347" style="edgeStyle=orthogonalEdgeStyle;rounded=0;orthogonalLoop=1;jettySize=auto;html=1;exitX=0;exitY=0.5;exitDx=0;exitDy=0;entryX=1;entryY=0.5;entryDx=0;entryDy=0;" edge="1" parent="1">
          <mxGeometry relative="1" as="geometry">
            <mxPoint x="876" y="1418" as="sourcePoint" />
            <mxPoint x="1234" y="1417.5" as="targetPoint" />
            <Array as="points">
              <mxPoint x="865" y="1418" />
              <mxPoint x="865" y="1385" />
              <mxPoint x="1245" y="1385" />
              <mxPoint x="1245" y="1417" />
            </Array>
          </mxGeometry>
        </mxCell>
        <mxCell id="nRilxqQP9LvpIdj3FOjO-314" value="" style="shape=table;startSize=0;container=1;collapsible=0;childLayout=tableLayout;fontSize=16;" vertex="1" parent="1">
          <mxGeometry x="876" y="1412.5" width="59" height="25" as="geometry" />
        </mxCell>
        <mxCell id="nRilxqQP9LvpIdj3FOjO-315" value="" style="shape=tableRow;horizontal=0;startSize=0;swimlaneHead=0;swimlaneBody=0;strokeColor=inherit;top=0;left=0;bottom=0;right=0;collapsible=0;dropTarget=0;fillColor=none;points=[[0,0.5],[1,0.5]];portConstraint=eastwest;fontSize=16;" vertex="1" parent="nRilxqQP9LvpIdj3FOjO-314">
          <mxGeometry width="59" height="25" as="geometry" />
        </mxCell>
        <mxCell id="nRilxqQP9LvpIdj3FOjO-316" value="ptr" style="shape=partialRectangle;html=1;whiteSpace=wrap;connectable=0;strokeColor=#6c8ebf;overflow=hidden;fillColor=#dae8fc;top=0;left=0;bottom=0;right=0;pointerEvents=1;fontSize=11;" vertex="1" parent="nRilxqQP9LvpIdj3FOjO-315">
          <mxGeometry width="19" height="25" as="geometry">
            <mxRectangle width="19" height="25" as="alternateBounds" />
          </mxGeometry>
        </mxCell>
        <mxCell id="nRilxqQP9LvpIdj3FOjO-317" value="val" style="shape=partialRectangle;html=1;whiteSpace=wrap;connectable=0;strokeColor=#d6b656;overflow=hidden;fillColor=#fff2cc;top=0;left=0;bottom=0;right=0;pointerEvents=1;fontSize=11;" vertex="1" parent="nRilxqQP9LvpIdj3FOjO-315">
          <mxGeometry x="19" width="21" height="25" as="geometry">
            <mxRectangle width="21" height="25" as="alternateBounds" />
          </mxGeometry>
        </mxCell>
        <mxCell id="nRilxqQP9LvpIdj3FOjO-318" value="ptr" style="shape=partialRectangle;html=1;whiteSpace=wrap;connectable=0;strokeColor=#6c8ebf;overflow=hidden;fillColor=#dae8fc;top=0;left=0;bottom=0;right=0;pointerEvents=1;fontSize=11;" vertex="1" parent="nRilxqQP9LvpIdj3FOjO-315">
          <mxGeometry x="40" width="19" height="25" as="geometry">
            <mxRectangle width="19" height="25" as="alternateBounds" />
          </mxGeometry>
        </mxCell>
        <mxCell id="nRilxqQP9LvpIdj3FOjO-319" style="edgeStyle=orthogonalEdgeStyle;rounded=0;orthogonalLoop=1;jettySize=auto;html=1;entryX=0;entryY=0.5;entryDx=0;entryDy=0;" edge="1" parent="1">
          <mxGeometry relative="1" as="geometry">
            <mxPoint x="855" y="1423.9999999999998" as="sourcePoint" />
            <mxPoint x="876" y="1424" as="targetPoint" />
          </mxGeometry>
        </mxCell>
        <mxCell id="nRilxqQP9LvpIdj3FOjO-320" value="&lt;font color=&quot;#ea6b66&quot;&gt;HEAD&lt;/font&gt;" style="rounded=0;whiteSpace=wrap;html=1;" vertex="1" parent="1">
          <mxGeometry x="815" y="1415" width="40" height="20" as="geometry" />
        </mxCell>
        <mxCell id="nRilxqQP9LvpIdj3FOjO-321" style="edgeStyle=orthogonalEdgeStyle;rounded=0;orthogonalLoop=1;jettySize=auto;html=1;" edge="1" parent="1">
          <mxGeometry relative="1" as="geometry">
            <mxPoint x="936" y="1419.9999999999998" as="sourcePoint" />
            <mxPoint x="955" y="1419.9999999999998" as="targetPoint" />
          </mxGeometry>
        </mxCell>
        <mxCell id="nRilxqQP9LvpIdj3FOjO-322" style="edgeStyle=orthogonalEdgeStyle;rounded=0;orthogonalLoop=1;jettySize=auto;html=1;entryX=0;entryY=0.5;entryDx=0;entryDy=0;" edge="1" parent="1">
          <mxGeometry relative="1" as="geometry">
            <mxPoint x="1015" y="1418.9999999999998" as="sourcePoint" />
            <mxPoint x="1035" y="1419" as="targetPoint" />
          </mxGeometry>
        </mxCell>
        <mxCell id="nRilxqQP9LvpIdj3FOjO-323" style="edgeStyle=orthogonalEdgeStyle;rounded=0;orthogonalLoop=1;jettySize=auto;html=1;entryX=0;entryY=0.5;entryDx=0;entryDy=0;" edge="1" parent="1">
          <mxGeometry relative="1" as="geometry">
            <mxPoint x="1151" y="1420" as="sourcePoint" />
            <mxPoint x="1175" y="1420" as="targetPoint" />
          </mxGeometry>
        </mxCell>
        <mxCell id="nRilxqQP9LvpIdj3FOjO-324" style="edgeStyle=orthogonalEdgeStyle;rounded=0;orthogonalLoop=1;jettySize=auto;html=1;entryX=1;entryY=0.5;entryDx=0;entryDy=0;" edge="1" parent="1">
          <mxGeometry relative="1" as="geometry">
            <mxPoint x="1121" y="1430" as="sourcePoint" />
            <mxPoint x="1095" y="1430" as="targetPoint" />
          </mxGeometry>
        </mxCell>
        <mxCell id="nRilxqQP9LvpIdj3FOjO-325" value="&lt;font style=&quot;font-size: 18px;&quot;&gt;...&lt;/font&gt;" style="whiteSpace=wrap;html=1;aspect=fixed;dashed=1;strokeColor=none;" vertex="1" parent="1">
          <mxGeometry x="1121" y="1410" width="30" height="30" as="geometry" />
        </mxCell>
        <mxCell id="nRilxqQP9LvpIdj3FOjO-326" style="edgeStyle=orthogonalEdgeStyle;rounded=0;orthogonalLoop=1;jettySize=auto;html=1;exitX=1;exitY=0.5;exitDx=0;exitDy=0;entryX=0;entryY=0.5;entryDx=0;entryDy=0;" edge="1" parent="1">
          <mxGeometry relative="1" as="geometry">
            <mxPoint x="1095" y="1420" as="sourcePoint" />
            <mxPoint x="1121.0000000000005" y="1420" as="targetPoint" />
          </mxGeometry>
        </mxCell>
        <mxCell id="nRilxqQP9LvpIdj3FOjO-328" style="edgeStyle=orthogonalEdgeStyle;rounded=0;orthogonalLoop=1;jettySize=auto;html=1;entryX=1;entryY=0.5;entryDx=0;entryDy=0;" edge="1" parent="1">
          <mxGeometry relative="1" as="geometry">
            <mxPoint x="955" y="1430" as="sourcePoint" />
            <mxPoint x="936" y="1430" as="targetPoint" />
          </mxGeometry>
        </mxCell>
        <mxCell id="nRilxqQP9LvpIdj3FOjO-329" style="edgeStyle=orthogonalEdgeStyle;rounded=0;orthogonalLoop=1;jettySize=auto;html=1;entryX=1;entryY=0.5;entryDx=0;entryDy=0;" edge="1" parent="1">
          <mxGeometry relative="1" as="geometry">
            <mxPoint x="1035" y="1431" as="sourcePoint" />
            <mxPoint x="1015" y="1431" as="targetPoint" />
          </mxGeometry>
        </mxCell>
        <mxCell id="nRilxqQP9LvpIdj3FOjO-330" style="edgeStyle=orthogonalEdgeStyle;rounded=0;orthogonalLoop=1;jettySize=auto;html=1;entryX=1;entryY=0.5;entryDx=0;entryDy=0;" edge="1" parent="1">
          <mxGeometry relative="1" as="geometry">
            <mxPoint x="1175" y="1430" as="sourcePoint" />
            <mxPoint x="1151" y="1430" as="targetPoint" />
          </mxGeometry>
        </mxCell>
        <mxCell id="nRilxqQP9LvpIdj3FOjO-331" value="" style="shape=table;startSize=0;container=1;collapsible=0;childLayout=tableLayout;fontSize=16;" vertex="1" parent="1">
          <mxGeometry x="955" y="1412.5" width="59" height="25" as="geometry" />
        </mxCell>
        <mxCell id="nRilxqQP9LvpIdj3FOjO-332" value="" style="shape=tableRow;horizontal=0;startSize=0;swimlaneHead=0;swimlaneBody=0;strokeColor=inherit;top=0;left=0;bottom=0;right=0;collapsible=0;dropTarget=0;fillColor=none;points=[[0,0.5],[1,0.5]];portConstraint=eastwest;fontSize=16;" vertex="1" parent="nRilxqQP9LvpIdj3FOjO-331">
          <mxGeometry width="59" height="25" as="geometry" />
        </mxCell>
        <mxCell id="nRilxqQP9LvpIdj3FOjO-333" value="ptr" style="shape=partialRectangle;html=1;whiteSpace=wrap;connectable=0;strokeColor=#6c8ebf;overflow=hidden;fillColor=#dae8fc;top=0;left=0;bottom=0;right=0;pointerEvents=1;fontSize=11;" vertex="1" parent="nRilxqQP9LvpIdj3FOjO-332">
          <mxGeometry width="19" height="25" as="geometry">
            <mxRectangle width="19" height="25" as="alternateBounds" />
          </mxGeometry>
        </mxCell>
        <mxCell id="nRilxqQP9LvpIdj3FOjO-334" value="val" style="shape=partialRectangle;html=1;whiteSpace=wrap;connectable=0;strokeColor=#d6b656;overflow=hidden;fillColor=#fff2cc;top=0;left=0;bottom=0;right=0;pointerEvents=1;fontSize=11;" vertex="1" parent="nRilxqQP9LvpIdj3FOjO-332">
          <mxGeometry x="19" width="21" height="25" as="geometry">
            <mxRectangle width="21" height="25" as="alternateBounds" />
          </mxGeometry>
        </mxCell>
        <mxCell id="nRilxqQP9LvpIdj3FOjO-335" value="ptr" style="shape=partialRectangle;html=1;whiteSpace=wrap;connectable=0;strokeColor=#6c8ebf;overflow=hidden;fillColor=#dae8fc;top=0;left=0;bottom=0;right=0;pointerEvents=1;fontSize=11;" vertex="1" parent="nRilxqQP9LvpIdj3FOjO-332">
          <mxGeometry x="40" width="19" height="25" as="geometry">
            <mxRectangle width="19" height="25" as="alternateBounds" />
          </mxGeometry>
        </mxCell>
        <mxCell id="nRilxqQP9LvpIdj3FOjO-336" value="" style="shape=table;startSize=0;container=1;collapsible=0;childLayout=tableLayout;fontSize=16;" vertex="1" parent="1">
          <mxGeometry x="1035" y="1412.5" width="59" height="25" as="geometry" />
        </mxCell>
        <mxCell id="nRilxqQP9LvpIdj3FOjO-337" value="" style="shape=tableRow;horizontal=0;startSize=0;swimlaneHead=0;swimlaneBody=0;strokeColor=inherit;top=0;left=0;bottom=0;right=0;collapsible=0;dropTarget=0;fillColor=none;points=[[0,0.5],[1,0.5]];portConstraint=eastwest;fontSize=16;" vertex="1" parent="nRilxqQP9LvpIdj3FOjO-336">
          <mxGeometry width="59" height="25" as="geometry" />
        </mxCell>
        <mxCell id="nRilxqQP9LvpIdj3FOjO-338" value="ptr" style="shape=partialRectangle;html=1;whiteSpace=wrap;connectable=0;strokeColor=#6c8ebf;overflow=hidden;fillColor=#dae8fc;top=0;left=0;bottom=0;right=0;pointerEvents=1;fontSize=11;" vertex="1" parent="nRilxqQP9LvpIdj3FOjO-337">
          <mxGeometry width="19" height="25" as="geometry">
            <mxRectangle width="19" height="25" as="alternateBounds" />
          </mxGeometry>
        </mxCell>
        <mxCell id="nRilxqQP9LvpIdj3FOjO-339" value="val" style="shape=partialRectangle;html=1;whiteSpace=wrap;connectable=0;strokeColor=#d6b656;overflow=hidden;fillColor=#fff2cc;top=0;left=0;bottom=0;right=0;pointerEvents=1;fontSize=11;" vertex="1" parent="nRilxqQP9LvpIdj3FOjO-337">
          <mxGeometry x="19" width="21" height="25" as="geometry">
            <mxRectangle width="21" height="25" as="alternateBounds" />
          </mxGeometry>
        </mxCell>
        <mxCell id="nRilxqQP9LvpIdj3FOjO-340" value="ptr" style="shape=partialRectangle;html=1;whiteSpace=wrap;connectable=0;strokeColor=#6c8ebf;overflow=hidden;fillColor=#dae8fc;top=0;left=0;bottom=0;right=0;pointerEvents=1;fontSize=11;" vertex="1" parent="nRilxqQP9LvpIdj3FOjO-337">
          <mxGeometry x="40" width="19" height="25" as="geometry">
            <mxRectangle width="19" height="25" as="alternateBounds" />
          </mxGeometry>
        </mxCell>
        <mxCell id="nRilxqQP9LvpIdj3FOjO-346" style="edgeStyle=orthogonalEdgeStyle;rounded=0;orthogonalLoop=1;jettySize=auto;html=1;entryX=0;entryY=0.5;entryDx=0;entryDy=0;exitX=1;exitY=0.5;exitDx=0;exitDy=0;" edge="1" parent="1">
          <mxGeometry relative="1" as="geometry">
            <mxPoint x="1234" y="1432.5" as="sourcePoint" />
            <mxPoint x="876" y="1433" as="targetPoint" />
            <Array as="points">
              <mxPoint x="1245" y="1432" />
              <mxPoint x="1245" y="1468" />
              <mxPoint x="865" y="1468" />
              <mxPoint x="865" y="1433" />
            </Array>
          </mxGeometry>
        </mxCell>
        <mxCell id="nRilxqQP9LvpIdj3FOjO-341" value="" style="shape=table;startSize=0;container=1;collapsible=0;childLayout=tableLayout;fontSize=16;" vertex="1" parent="1">
          <mxGeometry x="1175" y="1412" width="59" height="25" as="geometry" />
        </mxCell>
        <mxCell id="nRilxqQP9LvpIdj3FOjO-342" value="" style="shape=tableRow;horizontal=0;startSize=0;swimlaneHead=0;swimlaneBody=0;strokeColor=inherit;top=0;left=0;bottom=0;right=0;collapsible=0;dropTarget=0;fillColor=none;points=[[0,0.5],[1,0.5]];portConstraint=eastwest;fontSize=16;" vertex="1" parent="nRilxqQP9LvpIdj3FOjO-341">
          <mxGeometry width="59" height="25" as="geometry" />
        </mxCell>
        <mxCell id="nRilxqQP9LvpIdj3FOjO-343" value="ptr" style="shape=partialRectangle;html=1;whiteSpace=wrap;connectable=0;strokeColor=#6c8ebf;overflow=hidden;fillColor=#dae8fc;top=0;left=0;bottom=0;right=0;pointerEvents=1;fontSize=11;" vertex="1" parent="nRilxqQP9LvpIdj3FOjO-342">
          <mxGeometry width="19" height="25" as="geometry">
            <mxRectangle width="19" height="25" as="alternateBounds" />
          </mxGeometry>
        </mxCell>
        <mxCell id="nRilxqQP9LvpIdj3FOjO-344" value="val" style="shape=partialRectangle;html=1;whiteSpace=wrap;connectable=0;strokeColor=#d6b656;overflow=hidden;fillColor=#fff2cc;top=0;left=0;bottom=0;right=0;pointerEvents=1;fontSize=11;" vertex="1" parent="nRilxqQP9LvpIdj3FOjO-342">
          <mxGeometry x="19" width="21" height="25" as="geometry">
            <mxRectangle width="21" height="25" as="alternateBounds" />
          </mxGeometry>
        </mxCell>
        <mxCell id="nRilxqQP9LvpIdj3FOjO-345" value="ptr" style="shape=partialRectangle;html=1;whiteSpace=wrap;connectable=0;strokeColor=#6c8ebf;overflow=hidden;fillColor=#dae8fc;top=0;left=0;bottom=0;right=0;pointerEvents=1;fontSize=11;" vertex="1" parent="nRilxqQP9LvpIdj3FOjO-342">
          <mxGeometry x="40" width="19" height="25" as="geometry">
            <mxRectangle width="19" height="25" as="alternateBounds" />
          </mxGeometry>
        </mxCell>
      </root>
    </mxGraphModel>
  </diagram>
</mxfile>
